<svg width="22" height="23" viewBox="0 0 22 23" xmlns="http://www.w3.org/2000/svg"><title>95 - Settings (Outline) Copy</title><g stroke="#7F90A6" stroke-width="1.25" stroke-linecap="round" stroke-linejoin="round" fill="none" fill-rule="evenodd"><path d="M20.315 9.484h-1.943c-1.007 0-1.512-1.218-.8-1.93l1.375-1.374c.267-.268.267-.7 0-.97l-1.752-1.75c-.267-.267-.7-.267-.968 0l-1.374 1.374c-.712.712-1.93.208-1.93-.8V2.09c0-.377-.306-.683-.685-.683H9.762c-.38 0-.685.306-.685.684v1.944c0 1.008-1.218 1.512-1.93.8L5.773 3.46c-.268-.267-.7-.267-.968 0L3.053 5.21c-.267.27-.267.702 0 .97l1.374 1.373c.713.713.208 1.93-.8 1.93H1.686c-.378 0-.685.307-.685.685v2.477c0 .378.307.685.685.685h1.943c1.007 0 1.512 1.218.8 1.93l-1.375 1.374c-.267.267-.267.7 0 .968l1.752 1.75c.267.27.7.27.968 0l1.374-1.373c.712-.713 1.93-.208 1.93.8v1.942c0 .378.306.685.685.685h2.476c.38 0 .685-.307.685-.685V18.78c0-1.008 1.218-1.513 1.93-.8l1.374 1.373c.268.268.7.268.968 0l1.752-1.75c.267-.268.267-.702 0-.97l-1.374-1.373c-.713-.712-.208-1.93.8-1.93h1.942c.378 0 .685-.307.685-.685v-2.477c0-.378-.307-.684-.685-.684z"/><path d="M14.077 11.407c0 1.7-1.378 3.077-3.077 3.077-1.7 0-3.077-1.378-3.077-3.077C7.923 9.707 9.3 8.33 11 8.33c1.7 0 3.077 1.378 3.077 3.077z"/></g></svg>