<svg width="23" height="23" viewBox="0 0 23 23" xmlns="http://www.w3.org/2000/svg"><title>icon-trade-in copy</title><g stroke-linecap="round" stroke="#F7B900" stroke-linejoin="round" fill="none" fill-rule="evenodd"><path d="M22.042 7.74c0 3.797-3.077 6.875-6.875 6.875-3.797 0-6.875-3.078-6.875-6.875S11.37.865 15.167.865c3.798 0 6.875 3.078 6.875 6.875z" stroke-width="1.5"/><path d="M15.167 10.49v.917M15.167 4.073v.917M13.792 9.115c0 .76.616 1.375 1.375 1.375.76 0 1.375-.616 1.375-1.375 0-.76-.616-1.375-1.375-1.375-.76 0-1.375-.616-1.375-1.375 0-.76.616-1.375 1.375-1.375.76 0 1.375.615 1.375 1.375M7.833 17.823v.917M7.833 11.407v.916M6.46 16.448c0 .76.615 1.375 1.374 1.375.76 0 1.375-.616 1.375-1.375 0-.76-.617-1.375-1.376-1.375-.76 0-1.375-.616-1.375-1.375 0-.76.615-1.375 1.374-1.375.76 0 1.375.616 1.375 1.375"/><path d="M8.316 8.223c-.16-.01-.32-.024-.482-.024C4.037 8.2.96 11.276.96 15.073c0 3.797 3.077 6.875 6.874 6.875 3.797 0 6.875-3.08 6.875-6.876 0-.163-.015-.323-.026-.483" stroke-width="1.5"/></g></svg>