<svg width="42" height="76" viewBox="0 0 42 76" xmlns="http://www.w3.org/2000/svg"><title>70 - Iphone 6 (Webby)</title><g fill="none" fill-rule="evenodd"><path d="M37.11 74.957H5.08c-2.01 0-3.64-1.69-3.64-3.777V4.777C1.44 2.69 3.07 1 5.08 1H37.11c2.01 0 3.64 1.69 3.64 3.777V71.18c0 2.086-1.63 3.777-3.64 3.777z" fill="#FDEEBD"/><path d="M37.11 74.957H5.08c-2.01 0-3.64-1.69-3.64-3.777V4.777C1.44 2.69 3.07 1 5.08 1H37.11c2.01 0 3.64 1.69 3.64 3.777V71.18c0 2.086-1.63 3.777-3.64 3.777z" stroke="#F7B900" stroke-width="2" stroke-linecap="round"/><path d="M1.44 8.65h39.31v56.106H1.44V8.65z" fill="#FFF"/><path d="M1.44 8.65h39.31v56.106H1.44V8.65z" stroke="#F7B900" stroke-width="2" stroke-linecap="round"/><path d="M11.777 31.663H8.61c-.586 0-1.06-.38-1.06-.846v-.03c0-.468.474-.847 1.06-.847h3.167c.584 0 1.06.38 1.06.846v.03c0 .468-.476.847-1.06.847M32.12 31.663h-3.166c-.585 0-1.06-.38-1.06-.846v-.03c0-.468.475-.847 1.06-.847h3.167c.586 0 1.06.38 1.06.846v.03c0 .468-.474.847-1.06.847" fill="#FDEEBD"/><path d="M20.694 36.892c-2.083 0-3.886-1.414-4.485-3.52-.06-.205-.024-.423.1-.598.123-.177.32-.28.528-.28 1.278.063 2.564.095 3.856.095 1.29 0 2.577-.033 3.823-.097h.003c.24 0 .435.105.56.28.12.175.158.393.1.6-.6 2.105-2.404 3.52-4.486 3.52M9.108 27.08c.095-.237.232-.45.402-.63s.373-.325.598-.425c.224-.1.47-.155.73-.155s.506.055.73.155c.224.1.427.245.597.425.17.18.307.393.402.63.105.262.393.385.642.274.25-.11.365-.415.26-.678-.145-.36-.354-.685-.612-.958-.26-.272-.566-.493-.908-.646-.342-.152-.72-.237-1.113-.237-.392 0-.77.085-1.11.237-.344.153-.65.374-.91.646-.258.273-.467.597-.612.958-.105.263.012.567.26.678.25.11.537-.012.643-.275M28.836 27.08c.095-.237.233-.45.402-.63.17-.18.373-.325.597-.425.224-.1.47-.155.73-.155s.507.055.73.155c.225.1.427.245.598.425.17.18.307.393.402.63.105.262.393.385.642.274.25-.11.366-.415.26-.678-.144-.36-.353-.685-.61-.958-.26-.272-.567-.493-.91-.646-.342-.152-.72-.237-1.11-.237-.394 0-.77.085-1.114.237-.342.153-.65.374-.908.646-.258.273-.467.597-.612.958-.105.263.01.567.26.678.25.11.537-.012.643-.275" fill="#FFCE00"/><path d="M19.866 4.825h6.142m-11.056 0h1.23" stroke="#F7B900" stroke-width="2" stroke-linecap="round"/><path d="M24.78 69.856c0 2.113-1.65 3.826-3.686 3.826-2.035 0-3.685-1.713-3.685-3.826 0-2.112 1.65-3.825 3.684-3.825 2.036 0 3.686 1.714 3.686 3.826z" fill="#FFF"/><path d="M24.78 69.856c0 2.113-1.65 3.826-3.686 3.826-2.035 0-3.685-1.713-3.685-3.826 0-2.112 1.65-3.825 3.684-3.825 2.036 0 3.686 1.714 3.686 3.826z" stroke="#F7B900" stroke-width="2" stroke-linecap="round"/></g></svg>