<svg width="53" height="53" viewBox="0 0 53 53" xmlns="http://www.w3.org/2000/svg"><title>109 - Help (Webby)</title><g stroke="#F7B900" stroke-width="2" stroke-linecap="round" stroke-linejoin="round" fill="none" fill-rule="evenodd"><path d="M52 26.5C52 40.583 40.583 52 26.5 52S1 40.583 1 26.5 12.417 1 26.5 1 52 12.417 52 26.5z"/><path d="M13.24 26.5c0-7.323 5.937-13.26 13.26-13.26 7.323 0 13.26 5.937 13.26 13.26 0 7.323-5.937 13.26-13.26 13.26-7.323 0-13.26-5.937-13.26-13.26zM19.6 1.953l2.968 11.88m7.864 0l2.97-11.88m0 49.093l-2.97-11.88m-7.864 0l-2.97 11.88M51.05 19.6l-11.88 2.968m0 7.864l11.88 2.97m-49.095 0l11.88-2.97m0-7.864l-11.88-2.97"/><path d="M13.022 2.82h-6.22c-2.2 0-3.98 1.783-3.98 3.98v8.002M50.18 13.022v-6.22c0-2.2-1.783-3.98-3.98-3.98h-8.002M39.978 50.18h6.22c2.2 0 3.98-1.783 3.98-3.98v-8.002M2.82 39.977V46.2c0 2.197 1.783 3.98 3.98 3.98h8.002" stroke-dasharray="0.977,3.908"/></g></svg>