<svg xmlns="http://www.w3.org/2000/svg" width="25" height="16.7" viewBox="17.5 11.7 25 16.7"><path fill="#5EC1EC" d="M42.5 26.2c0 1.2-.9 2.1-2.1 2.1H19.6c-1.2 0-2.1-.9-2.1-2.1V13.8c0-1.2.9-2.1 2.1-2.1h20.8c1.2 0 2.1.9 2.1 2.1v12.4z"/><g fill="#FFF"><path d="M24.8 22l-.2-.7h-1.2l-.2.7H22l1.2-3.9h1.4l1.3 3.9h-1.1zm-.4-1.5l-.2-.6c0-.1-.1-.3-.1-.5s-.1-.4-.1-.5c0 .1 0 .2-.1.5 0 .2-.2.6-.3 1.2h.8v-.1zM28 22l-.8-2.8V22h-.9v-3.9h1.4l.8 2.8.8-2.8h1.4V22h-1v-1.7-.3-.8L29 22h-1zM33.8 22h-2.3v-3.9h2.3v.9h-1.2v.6h1.2v.8h-1.2v.8h1.2v.8zM38 22h-1.2l-.8-1.2-.8 1.2H34l1.3-2-1.2-1.9h1.2l.7 1.2.7-1.2h1.2l-1.2 2L38 22z"/></g><g fill="#FFF"><path d="M24.8 22l-.2-.7h-1.2l-.2.7H22l1.2-3.9h1.4l1.3 3.9h-1.1zm-.4-1.5l-.2-.6c0-.1-.1-.3-.1-.5s-.1-.4-.1-.5c0 .1 0 .2-.1.5 0 .2-.2.6-.3 1.2h.8v-.1zM28 22l-.8-2.8V22h-.9v-3.9h1.4l.8 2.8.8-2.8h1.4V22h-1v-1.7-.3-.8L29 22h-1zM33.8 22h-2.3v-3.9h2.3v.9h-1.2v.6h1.2v.8h-1.2v.8h1.2v.8zM38 22h-1.2l-.8-1.2-.8 1.2H34l1.3-2-1.2-1.9h1.2l.7 1.2.7-1.2h1.2l-1.2 2L38 22z"/></g><g><path fill="#9BCEE0" d="M40.4 12.1c.9 0 1.7.8 1.7 1.7v12.5c0 .9-.8 1.7-1.7 1.7H19.6c-.9 0-1.7-.7-1.7-1.7V13.8c0-.9.8-1.7 1.7-1.7h20.8m0-.4H19.6c-1.2 0-2.1.9-2.1 2.1v12.5c0 1.2.9 2.1 2.1 2.1h20.8c1.2 0 2.1-.9 2.1-2.1V13.8c0-1.2-.9-2.1-2.1-2.1z"/></g></svg>