<svg width="21" height="21" viewBox="0 0 21 21" xmlns="http://www.w3.org/2000/svg"><title>icon-question</title><g fill="none" fill-rule="evenodd"><path d="M10.5 14.582c-.457 0-.826.37-.826.826 0 .457.37.826.826.826.456 0 .826-.37.826-.826 0-.456-.37-.826-.826-.826" fill="#7F90A6"/><path d="M19.587 10.452c0 5.018-4.07 9.087-9.087 9.087-5.018 0-9.087-4.07-9.087-9.088 0-5.02 4.07-9.087 9.087-9.087 5.018 0 9.087 4.068 9.087 9.087z" stroke="#7F90A6" stroke-width="1.5" stroke-linecap="round" stroke-linejoin="round"/><path d="M8.022 8.386c0-1.368 1.11-2.478 2.478-2.478s2.478 1.11 2.478 2.478c0 1.37-1.11 2.48-2.478 2.48v2.477" stroke="#7F90A6" stroke-width="1.5" stroke-linecap="round" stroke-linejoin="round"/></g></svg>