<svg xmlns="http://www.w3.org/2000/svg" width="25" height="16.7" viewBox="17.5 11.7 25 16.7"><path fill="#5565AF" d="M42.5 26.2c0 1.2-.9 2.1-2.1 2.1H19.6c-1.2 0-2.1-.9-2.1-2.1V13.8c0-1.2.9-2.1 2.1-2.1h20.8c1.2 0 2.1.9 2.1 2.1v12.4z"/><g fill="#EA564B"><path d="M30 17.2c-.8-.9-1.9-1.4-3.1-1.4-2.3 0-4.2 1.9-4.2 4.2s1.9 4.2 4.2 4.2c1.2 0 2.4-.5 3.1-1.4-.7-.8-1-1.8-1-2.8s.3-2 1-2.8z"/><path d="M30 17.2c-.7.8-1 1.8-1 2.8s.4 2 1 2.8c.7-.8 1-1.7 1-2.8s-.3-2-1-2.8z"/></g><path fill="#E9D419" d="M33.1 15.8c-1.2 0-2.4.5-3.1 1.4-.2.2-.3.4-.5.7h1c.2.2.2.5.4.8h-1.7c-.1.3-.2.6-.2.9h2v.8h-2c0 .3.1.6.2.8h1.6c-.1.3-.2.6-.4.8h-1c.1.2.3.5.5.7.8.9 1.9 1.4 3.1 1.4 2.3 0 4.2-1.9 4.2-4.2.1-2.2-1.8-4.1-4.1-4.1z"/><path fill="#7684B7" d="M40.4 12.1c.9 0 1.7.8 1.7 1.7v12.5c0 .9-.8 1.7-1.7 1.7H19.6c-.9 0-1.7-.7-1.7-1.7V13.8c0-.9.8-1.7 1.7-1.7h20.8m0-.4H19.6c-1.2 0-2.1.9-2.1 2.1v12.5c0 1.2.9 2.1 2.1 2.1h20.8c1.2 0 2.1-.9 2.1-2.1V13.8c0-1.2-.9-2.1-2.1-2.1z"/></svg>