<svg width="30" height="28" viewBox="0 0 30 28" xmlns="http://www.w3.org/2000/svg"><title>Stroke 348 + Stroke 349</title><g stroke="#5B6675" stroke-linejoin="round" fill="none" fill-rule="evenodd"><path d="M29.5 12.33c0 6.534-6.492 11.83-14.5 11.83-1.787 0-3.5-.263-5.08-.746L1.5 27.5l3.35-6.72C2.165 18.63.5 15.64.5 12.33.5 5.798 6.992.5 15 .5s14.5 5.297 14.5 11.83z"/><path d="M15.63 19.413s6.935-5.043 6.935-8.78c0-4.31-5.674-5.673-6.935-.43-1.26-5.243-6.935-3.88-6.935.43 0 3.737 6.935 8.78 6.935 8.78z"/></g></svg>