<svg xmlns="http://www.w3.org/2000/svg" width="25" height="16.7" viewBox="17.5 11.7 25 16.7"><path fill="#F3F4F4" d="M42.5 26.2c0 1.2-.9 2.1-2.1 2.1H19.6c-1.2 0-2.1-.9-2.1-2.1V13.8c0-1.2.9-2.1 2.1-2.1h20.8c1.2 0 2.1.9 2.1 2.1v12.4z"/><path fill="#5565AF" d="M17.9 15.8v-2.1c0-1.2.9-1.8 2.1-1.8h20c1.2 0 2.1.6 2.1 1.8v2.1"/><path fill="#E6A124" d="M42.1 24.2v2.1c0 1.2-.9 1.7-2.1 1.7H20c-1.2 0-2.1-.5-2.1-1.7v-2.1"/><g fill="#5565AF"><path d="M24.8 21.4c.2-.5.3-.8.4-.9l1.4-2.9h1l-2.4 4.8h-1.1l-.4-4.8h1l.2 2.9v.4c-.1.2-.1.4-.1.5zM27.1 22.4l1-4.8h1l-1 4.8h-1zM32.2 21c0 .5-.2.8-.5 1.1-.3.2-.7.4-1.3.4-.5 0-.9-.1-1.2-.3v-.9c.4.2.8.3 1.2.3.2 0 .4 0 .6-.1.3-.2.2-.6 0-.8 0 0-.2-.2-.4-.3-.3-.2-.5-.4-.6-.6-.1-.2-.2-.4-.2-.7 0-.3.1-.5.2-.8.1-.2.3-.4.6-.5s.5-.2.9-.2c.5 0 .9.1 1.3.3l-.4.8c-.3-.2-.7-.2-.9-.2-.2 0-.3 0-.5.2s-.2.5-.1.8c.1.1.2.2.5.4.2.2.5.4.6.6.1 0 .2.2.2.5zM35.3 21.2h-1.5l-.5 1.1h-1l2.5-4.8H36l.5 4.8h-1l-.2-1.1zm0-.8l-.1-1.1v-.9c-.1.2-.2.5-.4.8l-.6 1.2h1.1z"/></g><path fill="#F8F8F9" d="M40.4 12.1c.9 0 1.7.8 1.7 1.7v12.5c0 .9-.8 1.7-1.7 1.7H19.6c-.9 0-1.7-.7-1.7-1.7V13.8c0-.9.8-1.7 1.7-1.7h20.8m0-.4H19.6c-1.2 0-2.1.9-2.1 2.1v12.5c0 1.2.9 2.1 2.1 2.1h20.8c1.2 0 2.1-.9 2.1-2.1V13.8c0-1.2-.9-2.1-2.1-2.1z"/></svg>