<svg width="15" height="24" viewBox="0 0 15 24" xmlns="http://www.w3.org/2000/svg"><title>icon-balloon copy</title><g stroke="#F7B900" stroke-width="1.5" stroke-linecap="round" stroke-linejoin="round" fill="none" fill-rule="evenodd"><path d="M14.034 7.873c0-4.2-2.8-7-6.534-7-3.733 0-6.533 2.8-6.533 7 0 3.74 4.93 6.773 6.067 7.467l-1.4 2.333h3.733l-1.4-2.333c1.136-.694 6.067-3.727 6.067-7.467z"/><path d="M7.5 17.673v2.8c0 .517.417.934.934.934.515 0 .933-.417.933-.934 0-.515.417-.933.933-.933.515 0 .934.418.934.933v1.867M2.834 7.407C2.834 4.83 4.922 2.74 7.5 2.74"/></g></svg>