<svg width="53" height="36" viewBox="0 0 53 36" xmlns="http://www.w3.org/2000/svg"><title>182 - Advertise (Webby)</title><g fill="none" fill-rule="evenodd"><path d="M34.418 30.603l-29.02-9.146v-6.332l29.02-9.146v24.623z" fill="#FFF"/><path d="M34.418 30.603l-29.02-9.146v-6.332l29.02-9.146v24.623z" stroke="#F7B900" stroke-width="2" stroke-linecap="round" stroke-linejoin="round"/><path d="M19.71 30.5L9.67 27.25c-1.103-.357-1.714-1.554-1.357-2.658.358-1.104 1.554-1.716 2.66-1.358l10.038 3.253c1.106.357 1.716 1.553 1.36 2.658-.36 1.105-1.556 1.716-2.66 1.358z" fill="#FFF"/><path d="M19.71 30.5L9.67 27.25c-1.103-.357-1.714-1.554-1.357-2.658.358-1.104 1.554-1.716 2.66-1.358l10.038 3.253c1.106.357 1.716 1.553 1.36 2.658-.36 1.105-1.556 1.716-2.66 1.358z" stroke="#F7B900" stroke-width="2" stroke-linecap="round" stroke-linejoin="round"/><path d="M3.2 24.447c-1.21 0-2.2-.99-2.2-2.2v-7.914c0-1.21.99-2.198 2.2-2.198 1.208 0 2.197.99 2.197 2.198v7.915c0 1.21-.99 2.2-2.198 2.2z" opacity=".501" fill="#F7B900"/><path d="M3.2 24.447c-1.21 0-2.2-.99-2.2-2.2v-7.914c0-1.21.99-2.198 2.2-2.198 1.208 0 2.197.99 2.197 2.198v7.915c0 1.21-.99 2.2-2.198 2.2z" stroke="#F7B900" stroke-width="2" stroke-linecap="round" stroke-linejoin="round"/><path d="M37.057 35c-1.45 0-2.64-1.187-2.64-2.638V4.22c0-1.45 1.19-2.638 2.64-2.638 1.45 0 2.638 1.187 2.638 2.638v28.142c0 1.45-1.187 2.638-2.638 2.638z" opacity=".501" fill="#F7B900"/><path d="M37.057 35c-1.45 0-2.64-1.187-2.64-2.638V4.22c0-1.45 1.19-2.638 2.64-2.638 1.45 0 2.638 1.187 2.638 2.638v28.142c0 1.45-1.187 2.638-2.638 2.638z" stroke="#F7B900" stroke-width="2" stroke-linecap="round" stroke-linejoin="round"/><path d="M44.092 18.29h7.915M44.092 8.058L49.69 2.46M44.092 13.334l7.915-2.638M44.092 28.524l5.597 5.597M44.092 23.247l7.915 2.64" stroke="#F7B900" stroke-width="2" stroke-linecap="round" stroke-linejoin="round" stroke-dasharray="3"/></g></svg>