<svg xmlns="http://www.w3.org/2000/svg" width="25" height="16.7" viewBox="17.6 11.7 25 16.7"><path fill="#F0F4F9" d="M42.6 26.2c0 1.2-.9 2.1-2.1 2.1H19.7c-1.2 0-2.1-.9-2.1-2.1V13.8c0-1.2.9-2.1 2.1-2.1h20.8c1.2 0 2.1.9 2.1 2.1v12.4z"/><path fill="#AEBCCE" d="M17.9 14.2h24.6v3.3H17.9z"/><path fill="#FFF" d="M20.8 19.2h15v3.3h-15z"/><path fill="#AEBCCE" d="M22.1 20.5h12.1v.8H22.1z"/><path fill="#AEBCCE" d="M40.5 12.1c.9 0 1.7.8 1.7 1.7v12.5c0 .9-.8 1.7-1.7 1.7H19.7c-.9 0-1.7-.7-1.7-1.7V13.8c0-.9.8-1.7 1.7-1.7h20.8m0-.4H19.7c-1.2 0-2.1.9-2.1 2.1v12.5c0 1.2.9 2.1 2.1 2.1h20.8c1.2 0 2.1-.9 2.1-2.1V13.8c0-1.2-1-2.1-2.1-2.1z"/><path fill="#FFF" d="M37.1 19.2h3.3v3.3h-3.3z"/><path fill="#AEBCCE" d="M37.5 20.5H40v.8h-2.5z"/><path fill="#E9564B" d="M38.5 24.5c-2 0-3.7-1.6-3.7-3.7 0-2 1.6-3.7 3.7-3.7s3.7 1.6 3.7 3.7-1.7 3.7-3.7 3.7zm0-6.5c-1.6 0-2.8 1.3-2.8 2.8s1.3 2.8 2.8 2.8 2.8-1.3 2.8-2.8-1.2-2.8-2.8-2.8z"/></svg>