<svg width="23" height="23" viewBox="0 0 23 23" xmlns="http://www.w3.org/2000/svg"><title>icon-repair</title><g stroke="#7F90A6" stroke-width="1.25" stroke-linecap="round" stroke-linejoin="round" fill="none" fill-rule="evenodd"><path d="M7.117 12.782H.96v-2.75H7.1M12.875 15.775v6.173h-2.75v-6.173M15.868 10.032h6.174v2.75h-6.188M10.125 7.024V.864h2.75V7.04"/><path d="M16.084 11.407c0 2.532-2.053 4.583-4.584 4.583-2.532 0-4.583-2.05-4.583-4.583 0-2.53 2.05-4.584 4.583-4.584 2.53 0 4.584 2.053 4.584 4.584zM12.875 1.88c4.215.603 7.55 3.936 8.152 8.152M1.972 10.032c.603-4.216 3.937-7.55 8.153-8.152M10.125 20.934c-4.216-.602-7.55-3.936-8.153-8.153M21.027 12.782c-.602 4.216-3.937 7.55-8.152 8.153"/></g></svg>