<svg xmlns="http://www.w3.org/2000/svg" width="25" height="16.7" viewBox="17.6 11.7 25 16.7"><path fill="#F0F4F9" d="M42.6 26.2c0 1.2-.9 2.1-2.1 2.1H19.7c-1.2 0-2.1-.9-2.1-2.1V13.8c0-1.2.9-2.1 2.1-2.1h20.8c1.2 0 2.1.9 2.1 2.1v12.4z"/><path fill="#AEBCCE" d="M20.7 14.7h3.4V18h-3.4zM20.7 20.3h19.5v1.6H20.7zM20.7 23.7h5v.9h-5zM26.6 23.7h3.6v.9h-3.6z"/><path fill="#AEBCCE" d="M40.5 12.1c.9 0 1.7.8 1.7 1.7v12.5c0 .9-.8 1.7-1.7 1.7H19.7c-.9 0-1.7-.7-1.7-1.7V13.8c0-.9.8-1.7 1.7-1.7h20.8m0-.4H19.7c-1.2 0-2.1.9-2.1 2.1v12.5c0 1.2.9 2.1 2.1 2.1h20.8c1.2 0 2.1-.9 2.1-2.1V13.8c0-1.2-1-2.1-2.1-2.1z"/></svg>