<svg width="55" height="54" viewBox="0 0 55 54" xmlns="http://www.w3.org/2000/svg"><title>7 - Ordered List (Webby)</title><g fill="none" fill-rule="evenodd"><path d="M1 53h53V1H1v52z" fill="#FFF"/><path d="M1 53h53V1H1v52z" stroke="#F7B900" stroke-width="2" stroke-linecap="round" opacity=".504"/><path d="M23.845 11.947h20.103M23.845 26.544h20.103M23.845 41.14h20.103M14.707 11.947v-4.56M14.707 16.51v-4.563M14.707 7.386l-3.655 3.65M11.51 24.72c0-1.513 1.225-2.738 2.74-2.738h.046c1.97.032 2.94 2.452 1.657 3.946l-4.15 4.836c-.116.134-.02.34.156.34h4.574M11.966 41.14h1.827M11.966 45.702h1.827c1.262 0 2.285-1.02 2.285-2.28 0-1.26-1.023-2.282-2.285-2.282 1.262 0 2.285-1.02 2.285-2.28 0-1.26-1.023-2.28-2.285-2.28h-1.827" stroke="#F7B900" stroke-width="2" stroke-linecap="round"/></g></svg>