<svg width="31" height="31" viewBox="0 0 31 31" xmlns="http://www.w3.org/2000/svg"><title>Stroke 445 + Stroke 446</title><g stroke-linecap="round" stroke="#5B6675" stroke-linejoin="round" fill="none" fill-rule="evenodd"><path d="M12.786 11.753c.8-.8.864-2.03.145-2.75L10.978 7.05c-.72-.72-1.95-.655-2.75.144l-1.19 1.19c-1.032 1.033-1.265 2.572-.56 3.69C9.5 16.867 13.654 21.02 18.45 24.045c1.114.704 2.657.47 3.688-.56l1.19-1.19c.8-.8.865-2.03.145-2.75L21.52 17.59c-.72-.72-1.95-.654-2.75.144l-.724.724c-2.163-1.734-4.25-3.82-5.983-5.983l.723-.724z"/><path d="M22.587 23.065c.63.63 1.968 6.935-7.565 6.935-8.01 0-14.5-6.492-14.5-14.5 0-8.01 6.49-14.5 14.5-14.5 8.008 0 14.5 6.49 14.5 14.5 0 3.04-.936 5.864-2.537 8.195"/></g></svg>