<svg width="19" height="19" viewBox="0 0 19 19" xmlns="http://www.w3.org/2000/svg"><title>icon-account copy</title><g stroke="#F7B900" stroke-width="1.5" stroke-linejoin="round" fill="none" fill-rule="evenodd"><path d="M8 11.657s-1.125-.375-1.125-2.25c-.62 0-.62-1.5 0-1.5 0-.25-1.125-3 .75-2.625.375-1.5 4.5-1.5 4.875 0 .26 1.04-.375 2.44-.375 2.625.62 0 .62 1.5 0 1.5 0 1.875-1.125 2.25-1.125 2.25v1.875c1.858.697 3.697 1.273 4.64 1.93 1.535-1.556 2.485-3.695 2.485-6.055 0-4.764-3.862-8.625-8.625-8.625C4.736.782.875 4.642.875 9.407c0 2.365.952 4.507 2.494 6.065.996-.69 2.963-1.31 4.63-1.94v-1.875zM3.37 15.472c1.563 1.58 3.732 2.56 6.13 2.56 2.402 0 4.575-.984 6.14-2.57"/></g></svg>