<svg xmlns="http://www.w3.org/2000/svg" width="25" height="16.7" viewBox="17.5 11.7 25 16.7"><path fill="#FFF9F0" d="M42.5 26.2c0 1.2-.9 2.1-2.1 2.1H19.6c-1.2 0-2.1-.9-2.1-2.1V13.8c0-1.2.9-2.1 2.1-2.1h20.8c1.2 0 2.1.9 2.1 2.1v12.4z"/><path fill="#414042" d="M23.8 20c0 .4-.1.8-.4 1-.2.2-.6.3-1 .3h-.7v-2.5h.8c.4 0 .8.1 1 .3.2.2.3.5.3.9zm-.6 0c0-.5-.2-.8-.7-.8h-.3v1.7h.2c.6-.1.8-.4.8-.9zM24.3 21.2v-2.5h.5v2.5h-.5zM27 20.6c0 .2-.1.4-.2.5s-.4.2-.7.2c-.2 0-.5 0-.7-.2v-.5c.2.1.3.1.4.2h.3s.2 0 .3-.1c0 0 .1-.1.1-.2v-.1l-.1-.1s-.2-.1-.3-.2c-.2-.1-.2-.1-.3-.2l-.2-.2c0-.1-.1-.2-.1-.3 0-.2.1-.4.2-.5.2-.1.4-.2.6-.2h.4c.1 0 .2.1.4.1l-.2.4c-.1 0-.2-.1-.3-.1h-.2s-.2 0-.2.1c0 0-.1.1-.1.2v.1s0 .1.1.1.2.1.3.2c.2.1.4.2.5.3-.1.1 0 .3 0 .5zM28.5 19.1c-.2 0-.4.1-.5.2-.1.2-.2.4-.2.6 0 .6.2.8.6.8.2 0 .4 0 .7-.1v.5c-.2.1-.5.1-.7.1-.4 0-.7-.1-.8-.3-.2-.2-.3-.5-.3-1 0-.2 0-.5.1-.7.1-.2.2-.3.4-.5.2-.1.4-.2.6-.2.2 0 .5 0 .7.2l-.2.4c-.1 0-.2-.1-.3-.1.1.2 0 .1-.1.1zM33.5 18.8h.5l-.9 2.5h-.6l-.9-2.5h.5l.5 1.5c0 .1 0 .2.1.3v.2c0-.1 0-.3.1-.5l.7-1.5zM35.8 21.2h-1.5v-2.5h1.5v.4h-.9v.5h.9v.5h-.9v.7h.9v.4zM36.8 20.3v1h-.5v-2.5h.7c.3 0 .6 0 .8.2.2.1.2.3.2.6 0 .2 0 .3-.1.4l-.3.3c.4.6.6 1 .8 1.1h-.6l-.6-1-.4-.1zm0-.4h.2c.2 0 .3 0 .4-.1.1 0 .1-.2.1-.3 0-.1 0-.2-.1-.2s-.2-.1-.4-.1h-.2v.7z"/><circle fill="#E6A124" cx="30.5" cy="20" r="1.2"/><path fill="#E6A124" d="M42.5 23.1v3.1c0 .3 0 .5-.2.8-.1.2-.2.5-.5.7-.2.2-.4.3-.7.5-.2.1-.5.2-.8.2H21.6l20.9-5.3z"/><g><path fill="#F7F5F2" d="M40.4 12.1c.9 0 1.7.8 1.7 1.7v12.5c0 .9-.8 1.7-1.7 1.7H19.6c-.9 0-1.7-.7-1.7-1.7V13.8c0-.9.8-1.7 1.7-1.7h20.8m0-.4H19.6c-1.1 0-2.1.9-2.1 2.1v12.5c0 1.2.9 2.1 2.1 2.1h20.8c1.2 0 2.1-.9 2.1-2.1V13.8c0-1.2-.9-2.1-2.1-2.1z"/></g></svg>