<svg xmlns="http://www.w3.org/2000/svg" xmlns:xlink="http://www.w3.org/1999/xlink" width="33" height="616" viewBox="0 0 33 616"><svg width="27" height="18.7" viewBox="16.5 10.7 27 18.7" enable-background="new 17.5 11.7 25 16.7" id="ico-ccard-amex" y="0"><path fill="#5EC1EC" d="M42.5 26.2c0 1.2-.9 2.1-2.1 2.1H19.6c-1.2 0-2.1-.9-2.1-2.1V13.8c0-1.2.9-2.1 2.1-2.1h20.8c1.2 0 2.1.9 2.1 2.1v12.4z"/><g fill="#fff"><path d="M24.8 22l-.2-.7h-1.2l-.2.7H22l1.2-3.9h1.4l1.3 3.9h-1.1zm-.4-1.5l-.2-.6c0-.1-.1-.3-.1-.5s-.1-.4-.1-.5c0 .1 0 .2-.1.5 0 .2-.2.6-.3 1.2h.8v-.1zM28 22l-.8-2.8V22h-.9v-3.9h1.4l.8 2.8.8-2.8h1.4V22h-1v-2.8L29 22h-1zM33.8 22h-2.3v-3.9h2.3v.9h-1.2v.6h1.2v.8h-1.2v.8h1.2v.8zM38 22h-1.2l-.8-1.2-.8 1.2H34l1.3-2-1.2-1.9h1.2l.7 1.2.7-1.2h1.2l-1.2 2L38 22z"/></g><g fill="#fff"><path d="M24.8 22l-.2-.7h-1.2l-.2.7H22l1.2-3.9h1.4l1.3 3.9h-1.1zm-.4-1.5l-.2-.6c0-.1-.1-.3-.1-.5s-.1-.4-.1-.5c0 .1 0 .2-.1.5 0 .2-.2.6-.3 1.2h.8v-.1zM28 22l-.8-2.8V22h-.9v-3.9h1.4l.8 2.8.8-2.8h1.4V22h-1v-2.8L29 22h-1zM33.8 22h-2.3v-3.9h2.3v.9h-1.2v.6h1.2v.8h-1.2v.8h1.2v.8zM38 22h-1.2l-.8-1.2-.8 1.2H34l1.3-2-1.2-1.9h1.2l.7 1.2.7-1.2h1.2l-1.2 2L38 22z"/></g><path fill="#56B1D9" d="M30 11.7"/><path fill="#9BCEE0" d="M40.4 12.1c.9 0 1.7.8 1.7 1.7v12.5c0 .9-.8 1.7-1.7 1.7H19.6c-.9 0-1.7-.7-1.7-1.7V13.8c0-.9.8-1.7 1.7-1.7h20.8m0-.4H19.6c-1.2 0-2.1.9-2.1 2.1v12.5c0 1.2.9 2.1 2.1 2.1h20.8c1.2 0 2.1-.9 2.1-2.1V13.8c0-1.2-.9-2.1-2.1-2.1z"/></svg><svg width="27" height="18.7" viewBox="16.6 10.7 27 18.7" enable-background="new 17.6 11.7 25 16.7" id="ico-ccard-back-of-card" y="19"><path fill="#F0F4F9" d="M42.6 26.2c0 1.2-.9 2.1-2.1 2.1H19.7c-1.2 0-2.1-.9-2.1-2.1V13.8c0-1.2.9-2.1 2.1-2.1h20.8c1.2 0 2.1.9 2.1 2.1v12.4z"/><path fill="#AEBCCE" d="M17.9 14.2h24.6v3.3H17.9z"/><path fill="#fff" d="M20.8 19.2h15v3.3h-15z"/><path fill="#AEBCCE" d="M22.1 20.5h12.1v.8H22.1zM40.5 12.1c.9 0 1.7.8 1.7 1.7v12.5c0 .9-.8 1.7-1.7 1.7H19.7c-.9 0-1.7-.7-1.7-1.7V13.8c0-.9.8-1.7 1.7-1.7h20.8m0-.4H19.7c-1.2 0-2.1.9-2.1 2.1v12.5c0 1.2.9 2.1 2.1 2.1h20.8c1.2 0 2.1-.9 2.1-2.1V13.8c0-1.2-1-2.1-2.1-2.1z"/><path fill="#fff" d="M37.1 19.2h3.3v3.3h-3.3z"/><path fill="#AEBCCE" d="M37.5 20.5H40v.8h-2.5z"/><path fill="#E9564B" d="M38.5 24.5c-2 0-3.7-1.6-3.7-3.7 0-2 1.6-3.7 3.7-3.7s3.7 1.6 3.7 3.7-1.7 3.7-3.7 3.7zm0-6.5c-1.6 0-2.8 1.3-2.8 2.8s1.3 2.8 2.8 2.8 2.8-1.3 2.8-2.8-1.2-2.8-2.8-2.8z"/></svg><svg width="27" height="18.7" viewBox="16.6 10.7 27 18.7" enable-background="new 17.6 11.7 25 16.7" id="ico-ccard-default-front" y="38"><path fill="#F0F4F9" d="M42.6 26.2c0 1.2-.9 2.1-2.1 2.1H19.7c-1.2 0-2.1-.9-2.1-2.1V13.8c0-1.2.9-2.1 2.1-2.1h20.8c1.2 0 2.1.9 2.1 2.1v12.4z"/><path fill="#AEBCCE" d="M20.7 14.7h3.4V18h-3.4zM20.7 20.3h19.5v1.6H20.7zM20.7 23.7h5v.9h-5zM26.6 23.7h3.6v.9h-3.6zM40.5 12.1c.9 0 1.7.8 1.7 1.7v12.5c0 .9-.8 1.7-1.7 1.7H19.7c-.9 0-1.7-.7-1.7-1.7V13.8c0-.9.8-1.7 1.7-1.7h20.8m0-.4H19.7c-1.2 0-2.1.9-2.1 2.1v12.5c0 1.2.9 2.1 2.1 2.1h20.8c1.2 0 2.1-.9 2.1-2.1V13.8c0-1.2-1-2.1-2.1-2.1z"/></svg><svg width="27" height="18.7" viewBox="16.5 10.7 27 18.7" enable-background="new 17.5 11.7 25 16.7" id="ico-ccard-discover" y="57"><path fill="#FFF9F0" d="M42.5 26.2c0 1.2-.9 2.1-2.1 2.1H19.6c-1.2 0-2.1-.9-2.1-2.1V13.8c0-1.2.9-2.1 2.1-2.1h20.8c1.2 0 2.1.9 2.1 2.1v12.4z"/><path fill="#414042" d="M23.8 20c0 .4-.1.8-.4 1-.2.2-.6.3-1 .3h-.7v-2.5h.8c.4 0 .8.1 1 .3.2.2.3.5.3.9zm-.6 0c0-.5-.2-.8-.7-.8h-.3v1.7h.2c.6-.1.8-.4.8-.9zM24.3 21.2v-2.5h.5v2.5h-.5zM27 20.6c0 .2-.1.4-.2.5s-.4.2-.7.2c-.2 0-.5 0-.7-.2v-.5c.2.1.3.1.4.2h.3s.2 0 .3-.1c0 0 .1-.1.1-.2v-.1l-.1-.1s-.2-.1-.3-.2c-.2-.1-.2-.1-.3-.2l-.2-.2c0-.1-.1-.2-.1-.3 0-.2.1-.4.2-.5.2-.1.4-.2.6-.2h.4c.1 0 .2.1.4.1l-.2.4c-.1 0-.2-.1-.3-.1h-.2s-.2 0-.2.1c0 0-.1.1-.1.2v.1s0 .1.1.1.2.1.3.2c.2.1.4.2.5.3-.1.1 0 .3 0 .5zM28.5 19.1c-.2 0-.4.1-.5.2-.1.2-.2.4-.2.6 0 .6.2.8.6.8.2 0 .4 0 .7-.1v.5c-.2.1-.5.1-.7.1-.4 0-.7-.1-.8-.3-.2-.2-.3-.5-.3-1 0-.2 0-.5.1-.7.1-.2.2-.3.4-.5.2-.1.4-.2.6-.2.2 0 .5 0 .7.2l-.2.4c-.1 0-.2-.1-.3-.1.1.2 0 .1-.1.1zM33.5 18.8h.5l-.9 2.5h-.6l-.9-2.5h.5l.5 1.5c0 .1 0 .2.1.3v.2c0-.1 0-.3.1-.5l.7-1.5zM35.8 21.2h-1.5v-2.5h1.5v.4h-.9v.5h.9v.5h-.9v.7h.9v.4zM36.8 20.3v1h-.5v-2.5h.7c.3 0 .6 0 .8.2.2.1.2.3.2.6 0 .2 0 .3-.1.4l-.3.3c.4.6.6 1 .8 1.1h-.6l-.6-1-.4-.1zm0-.4h.2c.2 0 .3 0 .4-.1.1 0 .1-.2.1-.3 0-.1 0-.2-.1-.2s-.2-.1-.4-.1h-.2v.7z"/><circle fill="#E6A124" cx="30.5" cy="20" r="1.2"/><path fill="#E6A124" d="M42.5 23.1v3.1c0 .3 0 .5-.2.8-.1.2-.2.5-.5.7-.2.2-.4.3-.7.5-.2.1-.5.2-.8.2H21.6l20.9-5.3z"/><path fill="#F7F5F2" d="M40.4 12.1c.9 0 1.7.8 1.7 1.7v12.5c0 .9-.8 1.7-1.7 1.7H19.6c-.9 0-1.7-.7-1.7-1.7V13.8c0-.9.8-1.7 1.7-1.7h20.8m0-.4H19.6c-1.1 0-2.1.9-2.1 2.1v12.5c0 1.2.9 2.1 2.1 2.1h20.8c1.2 0 2.1-.9 2.1-2.1V13.8c0-1.2-.9-2.1-2.1-2.1z"/></svg><svg width="27" height="18.7" viewBox="16.5 10.7 27 18.7" enable-background="new 17.5 11.7 25 16.7" id="ico-ccard-mastercard" y="76"><path fill="#5565AF" d="M42.5 26.2c0 1.2-.9 2.1-2.1 2.1H19.6c-1.2 0-2.1-.9-2.1-2.1V13.8c0-1.2.9-2.1 2.1-2.1h20.8c1.2 0 2.1.9 2.1 2.1v12.4z"/><path fill="#56B1D9" d="M30 11.7"/><g fill="#EA564B"><path d="M30 17.2c-.8-.9-1.9-1.4-3.1-1.4-2.3 0-4.2 1.9-4.2 4.2s1.9 4.2 4.2 4.2c1.2 0 2.4-.5 3.1-1.4-.7-.8-1-1.8-1-2.8s.3-2 1-2.8zM30 17.2c-.7.8-1 1.8-1 2.8s.4 2 1 2.8c.7-.8 1-1.7 1-2.8s-.3-2-1-2.8z"/></g><path fill="#E9D419" d="M33.1 15.8c-1.2 0-2.4.5-3.1 1.4-.2.2-.3.4-.5.7h1c.2.2.2.5.4.8h-1.7c-.1.3-.2.6-.2.9h2v.8h-2c0 .3.1.6.2.8h1.6c-.1.3-.2.6-.4.8h-1c.1.2.3.5.5.7.8.9 1.9 1.4 3.1 1.4 2.3 0 4.2-1.9 4.2-4.2.1-2.2-1.8-4.1-4.1-4.1z"/><path fill="#7684B7" d="M40.4 12.1c.9 0 1.7.8 1.7 1.7v12.5c0 .9-.8 1.7-1.7 1.7H19.6c-.9 0-1.7-.7-1.7-1.7V13.8c0-.9.8-1.7 1.7-1.7h20.8m0-.4H19.6c-1.2 0-2.1.9-2.1 2.1v12.5c0 1.2.9 2.1 2.1 2.1h20.8c1.2 0 2.1-.9 2.1-2.1V13.8c0-1.2-.9-2.1-2.1-2.1z"/></svg><svg width="27" height="18.7" viewBox="16.5 10.7 27 18.7" enable-background="new 17.5 11.7 25 16.7" id="ico-ccard-visa" y="95"><path fill="#F3F4F4" d="M42.5 26.2c0 1.2-.9 2.1-2.1 2.1H19.6c-1.2 0-2.1-.9-2.1-2.1V13.8c0-1.2.9-2.1 2.1-2.1h20.8c1.2 0 2.1.9 2.1 2.1v12.4z"/><path fill="#5565AF" d="M17.9 15.8v-2.1c0-1.2.9-1.8 2.1-1.8h20c1.2 0 2.1.6 2.1 1.8v2.1"/><path fill="#E6A124" d="M42.1 24.2v2.1c0 1.2-.9 1.7-2.1 1.7H20c-1.2 0-2.1-.5-2.1-1.7v-2.1"/><g fill="#5565AF"><path d="M24.8 21.4c.2-.5.3-.8.4-.9l1.4-2.9h1l-2.4 4.8h-1.1l-.4-4.8h1l.2 2.9v.4c-.1.2-.1.4-.1.5zM27.1 22.4l1-4.8h1l-1 4.8h-1zM32.2 21c0 .5-.2.8-.5 1.1-.3.2-.7.4-1.3.4-.5 0-.9-.1-1.2-.3v-.9c.4.2.8.3 1.2.3.2 0 .4 0 .6-.1.3-.2.2-.6 0-.8 0 0-.2-.2-.4-.3-.3-.2-.5-.4-.6-.6-.1-.2-.2-.4-.2-.7 0-.3.1-.5.2-.8.1-.2.3-.4.6-.5s.5-.2.9-.2c.5 0 .9.1 1.3.3l-.4.8c-.3-.2-.7-.2-.9-.2-.2 0-.3 0-.5.2s-.2.5-.1.8c.1.1.2.2.5.4.2.2.5.4.6.6.1 0 .2.2.2.5zM35.3 21.2h-1.5l-.5 1.1h-1l2.5-4.8H36l.5 4.8h-1l-.2-1.1zm0-.8l-.1-1.1v-.9c-.1.2-.2.5-.4.8l-.6 1.2h1.1z"/></g><path fill="#fff" d="M30 11.7"/><path fill="#F8F8F9" d="M40.4 12.1c.9 0 1.7.8 1.7 1.7v12.5c0 .9-.8 1.7-1.7 1.7H19.6c-.9 0-1.7-.7-1.7-1.7V13.8c0-.9.8-1.7 1.7-1.7h20.8m0-.4H19.6c-1.2 0-2.1.9-2.1 2.1v12.5c0 1.2.9 2.1 2.1 2.1h20.8c1.2 0 2.1-.9 2.1-2.1V13.8c0-1.2-.9-2.1-2.1-2.1z"/></svg><svg width="10" height="11" viewBox="-1 -1 10 11" id="ico-close" y="114"><title>Oval 1 Copy 3</title><desc>Created with Sketch.</desc><ellipse cx="238" cy="237.863" rx="4" ry="4" transform="translate(-234 -233)" fill="#D0011B"/></svg><svg width="10" height="11" viewBox="-1 -1 10 11" id="ico-open" y="125"><title>Oval 1 Copy</title><desc>Created with Sketch.</desc><ellipse cx="238" cy="180.807" rx="4" ry="4" transform="translate(-234 -176)" fill="#66B60F"/></svg><svg width="10" height="11" viewBox="-1 -1 10 11" id="ico-pending" y="136"><title>Oval 1 Copy 2</title><desc>Created with Sketch.</desc><ellipse cx="238" cy="208.407" rx="4" ry="4" transform="translate(-234 -204)" fill="#F8E81C"/></svg><svg width="21" height="21" viewBox="-1 -1 21 21" id="ico-portal-account" y="147"><title>icon-account</title><desc>Created with Sketch.</desc><g transform="translate(-172 -194) translate(172.5 194.407)" stroke="#7F90A6" stroke-width="1.5" stroke-linejoin="round" fill="none"><path d="M7.5 11.25S6.375 10.875 6.375 9c-.62 0-.62-1.5 0-1.5 0-.25-1.125-3 .75-2.625.375-1.5 4.5-1.5 4.875 0 .26 1.04-.375 2.44-.375 2.625.62 0 .62 1.5 0 1.5 0 1.875-1.125 2.25-1.125 2.25v1.875c1.858.697 3.697 1.274 4.64 1.93C16.674 13.5 17.624 11.36 17.624 9 17.625 4.236 13.763.375 9 .375 4.236.375.375 4.235.375 9c0 2.365.952 4.507 2.494 6.065.996-.69 2.963-1.31 4.63-1.94V11.25z"/><path d="M2.87 15.065c1.563 1.58 3.732 2.56 6.13 2.56 2.402 0 4.575-.983 6.14-2.57"/></g></svg><svg width="21" height="21" viewBox="-1 -1 21 21" id="ico-portal-account-active" y="168"><title>icon-account copy</title><desc>Created with Sketch.</desc><g transform="translate(-136 -194) translate(136.5 194.407)" stroke="#F7B900" stroke-width="1.5" stroke-linejoin="round" fill="none"><path d="M7.5 11.25S6.375 10.875 6.375 9c-.62 0-.62-1.5 0-1.5 0-.25-1.125-3 .75-2.625.375-1.5 4.5-1.5 4.875 0 .26 1.04-.375 2.44-.375 2.625.62 0 .62 1.5 0 1.5 0 1.875-1.125 2.25-1.125 2.25v1.875c1.858.697 3.697 1.274 4.64 1.93C16.674 13.5 17.624 11.36 17.624 9 17.625 4.236 13.763.375 9 .375 4.236.375.375 4.235.375 9c0 2.365.952 4.507 2.494 6.065.996-.69 2.963-1.31 4.63-1.94V11.25z"/><path d="M2.87 15.065c1.563 1.58 3.732 2.56 6.13 2.56 2.402 0 4.575-.983 6.14-2.57"/></g></svg><svg width="16" height="15" viewBox="-1 -1 16 15" id="ico-portal-delete" y="189"><title>delete 3</title><desc>Created with Sketch.</desc><path d="M13.55 1.31L12.228-.013l-5.04 5.04-5.04-5.04L.825 1.31l5.04 5.04-5.04 5.04 1.324 1.323 5.04-5.04 5.04 5.04 1.323-1.324-5.038-5.04 5.04-5.04z" fill="#AEBCCE"/></svg><svg width="33" height="33" viewBox="-1 -1 33 33" id="ico-portal-help-call" y="204"><title>Stroke 445 + Stroke 446</title><desc>Created with Sketch.</desc><g transform="translate(-913 -517) translate(914 518.5)" stroke-linecap="round" stroke="#5B6675" stroke-linejoin="round" fill="none"><path d="M11.786 10.253c.8-.8.864-2.03.145-2.75L9.978 5.55c-.72-.72-1.95-.655-2.75.144l-1.19 1.19c-1.032 1.033-1.265 2.572-.56 3.69C8.5 15.367 12.654 19.52 17.45 22.545c1.114.704 2.657.47 3.688-.56l1.19-1.19c.8-.8.865-2.03.145-2.75L20.52 16.09c-.72-.72-1.95-.654-2.75.144l-.724.724c-2.163-1.734-4.25-3.82-5.983-5.983l.723-.724z"/><path d="M21.587 21.565c.63.63 1.968 6.935-7.565 6.935-8.01 0-14.5-6.492-14.5-14.5 0-8.01 6.49-14.5 14.5-14.5 8.008 0 14.5 6.49 14.5 14.5 0 3.04-.936 5.864-2.537 8.195"/></g></svg><svg width="32" height="30" viewBox="-1 -1 32 30" id="ico-portal-help-chat" y="237"><title>Stroke 348 + Stroke 349</title><desc>Created with Sketch.</desc><g transform="translate(-913 -420) translate(913 420)" stroke="#5B6675" stroke-linejoin="round" fill="none"><path d="M29.5 12.33c0 6.534-6.492 11.83-14.5 11.83-1.787 0-3.5-.263-5.08-.746L1.5 27.5l3.35-6.72C2.165 18.63.5 15.64.5 12.33.5 5.798 6.992.5 15 .5s14.5 5.297 14.5 11.83z"/><path d="M15.63 19.413s6.935-5.043 6.935-8.78c0-4.31-5.674-5.673-6.935-.43-1.26-5.243-6.935-3.88-6.935.43 0 3.737 6.935 8.78 6.935 8.78z"/></g></svg><svg width="32" height="33" viewBox="-1 -1 32 33" id="ico-portal-help-email" y="267"><title>Group</title><desc>Created with Sketch.</desc><g transform="translate(-913 -466) translate(913 467.5)" stroke-linecap="round" stroke="#5B6675" stroke-linejoin="round" fill="none"><path d="M24.5 18.5c0 1.045-.956 2-2 2h-15c-1.044 0-2-.955-2-2v-9c0-1.043.956-2 2-2h15c1.044 0 2 .957 2 2v9z"/><path d="M22 9.5L15 15 8 9.5"/><path d="M22 17.5l-5.09-4"/><path d="M8 17.5l5.09-4"/><path d="M29.5 14c0 8.01-6.492 14.5-14.5 14.5S.5 22.01.5 14C.5 5.994 6.992-.5 15-.5S29.5 5.994 29.5 14z"/></g></svg><svg width="22" height="34" viewBox="-1 -1 22 34" id="ico-portal-iphone" y="300"><title>icon-iphone copy 2</title><desc>Created with Sketch.</desc><g transform="translate(-232 -122) translate(233 123)" stroke-linecap="round" stroke="#F7C200" stroke-width="1.25" fill="none"><path d="M17.5 26.5c0 1.65-1.35 3-3 3h-11c-1.65 0-3-1.35-3-3v-23c0-1.65 1.35-3 3-3h11c1.65 0 3 1.35 3 3v23z"/><path d="M.5 5h17"/><path d="M.5 24h17"/><path d="M5.5 3h7"/><path d="M10 27c0 .552-.447 1-1 1-.553 0-1-.448-1-1s.447-1 1-1c.553 0 1 .448 1 1z"/></g></svg><svg width="21" height="21" viewBox="-1 -1 21 21" id="ico-portal-membership" y="334"><title>icon-advantage copy</title><desc>Created with Sketch.</desc><path d="M9.5 17.762s8-6.193 8-12.053c0-5.862-7.098-6.313-8-.452-.902-5.86-8-5.41-8 .902 0 6.31 8 11.602 8 11.602z" stroke="#8191A7" stroke-width="1.5" stroke-linejoin="round" fill="none"/></svg><svg width="21" height="21" viewBox="-1 -1 21 21" id="ico-portal-membership-active" y="355"><title>icon-advantage</title><desc>Created with Sketch.</desc><path d="M9.5 17.762s8-6.193 8-12.053c0-5.862-7.098-6.313-8-.452-.902-5.86-8-5.41-8 .902 0 6.31 8 11.602 8 11.602z" stroke="#F7B900" stroke-width="1.5" stroke-linejoin="round" fill="none"/></svg><svg width="17" height="26" viewBox="-1 -1 17 26" id="ico-portal-perks" y="376"><title>icon-balloon</title><desc>Created with Sketch.</desc><g transform="translate(-174 -154) translate(174.5 154.407)" stroke="#7F90A6" stroke-width="1.5" stroke-linecap="round" stroke-linejoin="round" fill="none"><path d="M13.534 7.467c0-4.2-2.8-7-6.534-7-3.733 0-6.533 2.8-6.533 7 0 3.74 4.93 6.772 6.067 7.466l-1.4 2.334h3.733l-1.4-2.334c1.136-.694 6.067-3.726 6.067-7.466z"/><path d="M7 17.267v2.8c0 .516.417.933.934.933.515 0 .933-.417.933-.933s.417-.934.933-.934c.515 0 .934.418.934.934v1.866"/><path d="M2.334 7c0-2.578 2.088-4.667 4.666-4.667"/></g></svg><svg width="17" height="26" viewBox="-1 -1 17 26" id="ico-portal-perks-active" y="402"><title>icon-balloon copy</title><desc>Created with Sketch.</desc><g transform="translate(-138 -154) translate(138.5 154.407)" stroke="#F7B900" stroke-width="1.5" stroke-linecap="round" stroke-linejoin="round" fill="none"><path d="M13.534 7.467c0-4.2-2.8-7-6.534-7-3.733 0-6.533 2.8-6.533 7 0 3.74 4.93 6.772 6.067 7.466l-1.4 2.334h3.733l-1.4-2.334c1.136-.694 6.067-3.726 6.067-7.466z"/><path d="M7 17.267v2.8c0 .516.417.933.934.933.515 0 .933-.417.933-.933s.417-.934.933-.934c.515 0 .934.418.934.934v1.866"/><path d="M2.334 7c0-2.578 2.088-4.667 4.666-4.667"/></g></svg><svg width="25" height="25" viewBox="-1 -1 25 25" id="ico-portal-repair" y="428"><title>icon-repair</title><desc>Created with Sketch.</desc><g transform="translate(-170 -264) translate(170.5 264.407)" stroke="#7F90A6" stroke-width="1.25" stroke-linecap="round" stroke-linejoin="round" fill="none"><path d="M6.617 12.375H.46v-2.75H6.6"/><path d="M12.375 15.368v6.173h-2.75V15.37"/><path d="M15.368 9.625h6.174v2.75h-6.188"/><path d="M9.625 6.617V.457h2.75v6.175"/><path d="M15.584 11c0 2.532-2.053 4.583-4.584 4.583-2.532 0-4.583-2.05-4.583-4.583 0-2.53 2.05-4.583 4.583-4.583 2.53 0 4.584 2.052 4.584 4.583z"/><path d="M12.375 1.473c4.215.603 7.55 3.936 8.152 8.152"/><path d="M1.472 9.625c.603-4.216 3.937-7.55 8.153-8.152"/><path d="M9.625 20.527c-4.216-.602-7.55-3.936-8.153-8.152"/><path d="M20.527 12.375c-.602 4.216-3.937 7.55-8.152 8.153"/></g></svg><svg width="25" height="25" viewBox="-1 -1 25 25" id="ico-portal-repair-active" y="453"><title>icon-repair copy</title><desc>Created with Sketch.</desc><g transform="translate(-134 -264) translate(134.5 264.407)" stroke="#F7B900" stroke-width="1.25" stroke-linecap="round" stroke-linejoin="round" fill="none"><path d="M6.617 12.375H.46v-2.75H6.6"/><path d="M12.375 15.368v6.173h-2.75V15.37"/><path d="M15.368 9.625h6.174v2.75h-6.188"/><path d="M9.625 6.617V.457h2.75v6.175"/><path d="M15.584 11c0 2.532-2.053 4.583-4.584 4.583-2.532 0-4.583-2.05-4.583-4.583 0-2.53 2.05-4.583 4.583-4.583 2.53 0 4.584 2.052 4.584 4.583z"/><path d="M12.375 1.473c4.215.603 7.55 3.936 8.152 8.152"/><path d="M1.472 9.625c.603-4.216 3.937-7.55 8.153-8.152"/><path d="M9.625 20.527c-4.216-.602-7.55-3.936-8.153-8.152"/><path d="M20.527 12.375c-.602 4.216-3.937 7.55-8.152 8.153"/></g></svg><svg width="11" height="17" viewBox="-1 -1 11 17" id="ico-portal-right-arrow" y="478"><title>navigateright</title><desc>Created with Sketch.</desc><path d="M1.385 14.914l7.012-7.012L1.385.892.272 1.993 6.18 7.902l-5.908 5.91 1.113 1.102z" fill="#5B6675"/></svg><svg width="25" height="25" viewBox="-1 -1 25 25" id="ico-portal-sell" y="495"><title>icon-trade-in</title><desc>Created with Sketch.</desc><g transform="translate(-170 -300) translate(170.5 300.407)" stroke-linecap="round" stroke="#7F90A6" stroke-linejoin="round" fill="none"><path d="M21.542 7.333c0 3.797-3.077 6.875-6.875 6.875-3.797 0-6.875-3.078-6.875-6.875 0-3.796 3.078-6.875 6.875-6.875 3.798 0 6.875 3.079 6.875 6.875z"/><path d="M14.667 10.083V11"/><path d="M14.667 3.667v.916"/><path d="M13.292 8.708c0 .76.616 1.375 1.375 1.375.76 0 1.375-.616 1.375-1.375 0-.76-.616-1.375-1.375-1.375-.76 0-1.375-.616-1.375-1.375 0-.76.616-1.375 1.375-1.375.76 0 1.375.615 1.375 1.375"/><path d="M7.333 17.417v.916"/><path d="M7.333 11v.917"/><path d="M5.96 16.042c0 .76.615 1.375 1.374 1.375.76 0 1.375-.616 1.375-1.375 0-.76-.617-1.375-1.376-1.375-.76 0-1.375-.616-1.375-1.375 0-.76.615-1.375 1.374-1.375.76 0 1.375.615 1.375 1.375"/><path d="M7.816 7.816c-.16-.01-.32-.024-.482-.024C3.537 7.792.46 10.87.46 14.667s3.077 6.875 6.874 6.875c3.797 0 6.875-3.078 6.875-6.875 0-.163-.015-.323-.026-.483"/></g></svg><svg width="25" height="25" viewBox="-1 -1 25 25" id="ico-portal-sell-active" y="520"><title>icon-trade-in copy</title><desc>Created with Sketch.</desc><g transform="translate(-134 -300) translate(134.5 300.407)" stroke-linecap="round" stroke="#F7B900" stroke-linejoin="round" fill="none"><path d="M21.542 7.333c0 3.797-3.077 6.875-6.875 6.875-3.797 0-6.875-3.078-6.875-6.875 0-3.796 3.078-6.875 6.875-6.875 3.798 0 6.875 3.079 6.875 6.875z"/><path d="M14.667 10.083V11"/><path d="M14.667 3.667v.916"/><path d="M13.292 8.708c0 .76.616 1.375 1.375 1.375.76 0 1.375-.616 1.375-1.375 0-.76-.616-1.375-1.375-1.375-.76 0-1.375-.616-1.375-1.375 0-.76.616-1.375 1.375-1.375.76 0 1.375.615 1.375 1.375"/><path d="M7.333 17.417v.916"/><path d="M7.333 11v.917"/><path d="M5.96 16.042c0 .76.615 1.375 1.374 1.375.76 0 1.375-.616 1.375-1.375 0-.76-.617-1.375-1.376-1.375-.76 0-1.375-.616-1.375-1.375 0-.76.615-1.375 1.374-1.375.76 0 1.375.615 1.375 1.375"/><path d="M7.816 7.816c-.16-.01-.32-.024-.482-.024C3.537 7.792.46 10.87.46 14.667s3.077 6.875 6.874 6.875c3.797 0 6.875-3.078 6.875-6.875 0-.163-.015-.323-.026-.483"/></g></svg><svg width="23" height="23" viewBox="-1 -1 23 23" id="ico-portal-support" y="545"><title>icon-question</title><desc>Created with Sketch.</desc><g transform="translate(-171 -227) translate(172 228.363)" fill="none"><path d="M9.5 13.22c-.457 0-.826.37-.826.825 0 .457.37.826.826.826.456 0 .826-.368.826-.825 0-.456-.37-.826-.826-.826" fill="#7F90A6"/><path d="M18.587 9.09c0 5.017-4.07 9.085-9.087 9.085-5.018 0-9.087-4.068-9.087-9.086C.413 4.07 4.483 0 9.5 0c5.018 0 9.087 4.068 9.087 9.087z" stroke="#7F90A6" stroke-width="1.5" stroke-linecap="round" stroke-linejoin="round"/><path d="M7.022 7.023c0-1.368 1.11-2.478 2.478-2.478s2.478 1.11 2.478 2.478c0 1.37-1.11 2.48-2.478 2.48v2.477" stroke="#7F90A6" stroke-width="1.5" stroke-linecap="round" stroke-linejoin="round"/></g></svg><svg width="23" height="23" viewBox="-1 -1 23 23" id="ico-portal-support-active" y="568"><title>icon-question copy</title><desc>Created with Sketch.</desc><g transform="translate(-135 -227) translate(136 228.363)" fill="none"><path d="M9.5 13.22c-.457 0-.826.37-.826.825 0 .457.37.826.826.826.456 0 .826-.368.826-.825 0-.456-.37-.826-.826-.826" fill="#F7B900"/><path d="M18.587 9.09c0 5.017-4.07 9.085-9.087 9.085-5.018 0-9.087-4.068-9.087-9.086C.413 4.07 4.483 0 9.5 0c5.018 0 9.087 4.068 9.087 9.087z" stroke="#F7B900" stroke-width="1.5" stroke-linecap="round" stroke-linejoin="round"/><path d="M7.022 7.023c0-1.368 1.11-2.478 2.478-2.478s2.478 1.11 2.478 2.478c0 1.37-1.11 2.48-2.478 2.48v2.477" stroke="#F7B900" stroke-width="1.5" stroke-linecap="round" stroke-linejoin="round"/></g></svg><svg width="24" height="25" viewBox="-1 -1 24 25" id="ico-settings" y="591"><title>95 - Settings (Outline) Copy</title><desc>Created with Sketch.</desc><g transform="translate(-227 -265) translate(228 266.407)" stroke="#7F90A6" stroke-width="1.25" stroke-linecap="round" stroke-linejoin="round" fill="none"><path d="M19.315 8.077h-1.943c-1.007 0-1.512-1.218-.8-1.93l1.375-1.374c.267-.268.267-.7 0-.97l-1.752-1.75c-.267-.267-.7-.267-.968 0l-1.374 1.374c-.712.712-1.93.208-1.93-.8V.686c0-.378-.306-.685-.685-.685H8.762c-.38 0-.685.307-.685.685v1.943c0 1.007-1.218 1.51-1.93.8L4.773 2.052c-.268-.267-.7-.267-.968 0l-1.752 1.75c-.267.27-.267.702 0 .97l1.374 1.374c.713.712.208 1.93-.8 1.93H.686c-.378 0-.685.306-.685.685v2.476c0 .38.307.685.685.685h1.943c1.007 0 1.512 1.218.8 1.93l-1.375 1.374c-.267.267-.267.7 0 .968l1.752 1.752c.267.267.7.267.968 0l1.374-1.374c.712-.713 1.93-.208 1.93.8v1.942c0 .378.306.685.685.685h2.476c.38 0 .685-.307.685-.685v-1.943c0-1.007 1.218-1.512 1.93-.8l1.374 1.375c.268.267.7.267.968 0l1.752-1.752c.267-.267.267-.7 0-.968l-1.374-1.374c-.713-.712-.208-1.93.8-1.93h1.942c.378 0 .685-.306.685-.685V8.762c0-.38-.307-.685-.685-.685zM13.077 10c0 1.7-1.378 3.077-3.077 3.077-1.7 0-3.077-1.378-3.077-3.077C6.923 8.3 8.3 6.923 10 6.923c1.7 0 3.077 1.378 3.077 3.077z"/></g></svg></svg>