<?xml version="1.0" encoding="UTF-8" standalone="no"?>
<svg width="53px" height="53px" viewBox="0 0 53 53" version="1.1" xmlns="http://www.w3.org/2000/svg" xmlns:xlink="http://www.w3.org/1999/xlink" xmlns:sketch="http://www.bohemiancoding.com/sketch/ns">
    <!-- Generator: Sketch 3.3.1 (12002) - http://www.bohemiancoding.com/sketch -->
    <title>109 - Help (Webby)</title>
    <desc>Created with Sketch.</desc>
    <defs></defs>
    <g id="Advantage-Dashboard" stroke="none" stroke-width="1" fill="none" fill-rule="evenodd" sketch:type="MSPage">
        <g id="Account---Support---Active" sketch:type="MSArtboardGroup" transform="translate(-409.000000, -400.000000)" stroke="#F7B900" stroke-width="2" stroke-linecap="round" stroke-linejoin="round">
            <g id="109---Help-(Webby)" sketch:type="MSLayerGroup" transform="translate(410.000000, 401.000000)">
                <path d="M51,25.5 C51,39.5832857 39.5832857,51 25.5,51 C11.4167143,51 0,39.5832857 0,25.5 C0,11.4167143 11.4167143,0 25.5,0 C39.5832857,0 51,11.4167143 51,25.5 L51,25.5 Z" id="Stroke-108" sketch:type="MSShapeGroup"></path>
                <path d="M12.24,25.5 C12.24,18.1769464 18.1769464,12.24 25.5,12.24 C32.8230536,12.24 38.76,18.1769464 38.76,25.5 C38.76,32.8230536 32.8230536,38.76 25.5,38.76 C18.1769464,38.76 12.24,32.8230536 12.24,25.5 L12.24,25.5 Z" id="Stroke-110" sketch:type="MSShapeGroup"></path>
                <path d="M18.5986071,0.952607143 L21.5684464,12.832875 M29.4315536,12.832875 L32.4013929,0.952607143 M32.4013929,50.0464821 L29.4315536,38.167125 M21.5684464,38.167125 L18.5986071,50.0464821 M50.0473929,18.5986071 L38.167125,21.5684464 M38.167125,29.4315536 L50.0473929,32.4013929 M0.952607143,32.4013929 L12.832875,29.4315536 M12.832875,21.5684464 L0.952607143,18.5986071" id="Stroke-111" sketch:type="MSShapeGroup"></path>
                <path d="M12.0223393,1.82142857 L5.80125,1.82142857 C3.60278571,1.82142857 1.82142857,3.60278571 1.82142857,5.80125 L1.82142857,13.801875" id="Stroke-113" stroke-dasharray="0.977,3.908" sketch:type="MSShapeGroup"></path>
                <path d="M49.1785714,12.0223393 L49.1785714,5.80125 C49.1785714,3.60278571 47.3972143,1.82142857 45.19875,1.82142857 L37.198125,1.82142857" id="Stroke-117" stroke-dasharray="0.977,3.908" sketch:type="MSShapeGroup"></path>
                <path d="M38.9776607,49.1785714 L45.19875,49.1785714 C47.3972143,49.1785714 49.1785714,47.3972143 49.1785714,45.19875 L49.1785714,37.198125" id="Stroke-121" stroke-dasharray="0.977,3.908" sketch:type="MSShapeGroup"></path>
                <path d="M1.82142857,38.97675 L1.82142857,45.19875 C1.82142857,47.3972143 3.60278571,49.1785714 5.80125,49.1785714 L13.801875,49.1785714" id="Stroke-125" stroke-dasharray="0.977,3.908" sketch:type="MSShapeGroup"></path>
            </g>
        </g>
    </g>
</svg>