<?xml version="1.0" encoding="UTF-8" standalone="no"?>
<svg width="19px" height="19px" viewBox="0 0 19 19" version="1.1" xmlns="http://www.w3.org/2000/svg" xmlns:xlink="http://www.w3.org/1999/xlink" xmlns:sketch="http://www.bohemiancoding.com/sketch/ns">
    <!-- Generator: Sketch 3.3.1 (12002) - http://www.bohemiancoding.com/sketch -->
    <title>icon-account</title>
    <desc>Created with Sketch.</desc>
    <defs></defs>
    <g id="Advantage-Dashboard" stroke="none" stroke-width="1" fill="none" fill-rule="evenodd" sketch:type="MSPage">
        <g id="Artboard-28" sketch:type="MSArtboardGroup" transform="translate(-172.000000, -194.000000)" stroke="#7F90A6" stroke-width="1.5" stroke-linejoin="round">
            <g id="icon-account" sketch:type="MSLayerGroup" transform="translate(172.500000, 194.406796)">
                <path d="M7.5,11.25 C7.5,11.25 6.375,10.875 6.375,9 C5.7555,9 5.7555,7.5 6.375,7.5 C6.375,7.24875 5.25,4.5 7.125,4.875 C7.5,3.375 11.625,3.375 12,4.875 C12.26025,5.916 11.625,7.3155 11.625,7.5 C12.2445,7.5 12.2445,9 11.625,9 C11.625,10.875 10.5,11.25 10.5,11.25 L10.5,13.125 C12.35775,13.82175 14.1975,14.3985 15.13875,15.05625 C16.6755,13.49925 17.625,11.36025 17.625,9 C17.625,4.236 13.76325,0.375 9,0.375 C4.236,0.375 0.375,4.236 0.375,9 C0.375,11.36475 1.3275,13.50675 2.86875,15.06525 C3.86625,14.37525 5.83275,13.755 7.5,13.125 L7.5,11.25 L7.5,11.25 Z" id="Stroke-1692" sketch:type="MSShapeGroup"></path>
                <path d="M2.8689,15.065175 C4.43265,16.645425 6.60165,17.624925 9.00015,17.624925 C11.4024,17.624925 13.57515,16.641675 15.1389,15.056175" id="Stroke-1693" sketch:type="MSShapeGroup"></path>
            </g>
        </g>
    </g>
</svg>