<?xml version="1.0" encoding="UTF-8" standalone="no"?>
<svg width="23px" height="23px" viewBox="0 0 23 23" version="1.1" xmlns="http://www.w3.org/2000/svg" xmlns:xlink="http://www.w3.org/1999/xlink" xmlns:sketch="http://www.bohemiancoding.com/sketch/ns">
    <!-- Generator: Sketch 3.3.1 (12002) - http://www.bohemiancoding.com/sketch -->
    <title>icon-repair</title>
    <desc>Created with Sketch.</desc>
    <defs></defs>
    <g id="Advantage-Dashboard" stroke="none" stroke-width="1" fill="none" fill-rule="evenodd" sketch:type="MSPage">
        <g id="Artboard-28" sketch:type="MSArtboardGroup" transform="translate(-170.000000, -264.000000)" stroke="#7F90A6" stroke-width="1.25" stroke-linecap="round" stroke-linejoin="round">
            <g id="icon-repair" sketch:type="MSLayerGroup" transform="translate(170.500000, 264.406796)">
                <path d="M6.61714167,12.375 L0.458975,12.375 L0.458975,9.625 L6.602475,9.625" id="Stroke-6469" sketch:type="MSShapeGroup"></path>
                <path d="M12.375275,15.3684667 L12.375275,21.5413 L9.625275,21.5413 L9.625275,15.3684667" id="Stroke-6470" sketch:type="MSShapeGroup"></path>
                <path d="M15.3684667,9.625 L21.5422167,9.625 L21.5422167,12.375 L15.3538,12.375" id="Stroke-6471" sketch:type="MSShapeGroup"></path>
                <path d="M9.625275,6.61714167 L9.625275,0.458058333 L12.375275,0.458058333 L12.375275,6.63180833" id="Stroke-6472" sketch:type="MSShapeGroup"></path>
                <path d="M15.5836083,11 C15.5836083,13.5318333 13.5311917,15.5833333 11.000275,15.5833333 C8.467525,15.5833333 6.41694167,13.5318333 6.41694167,11 C6.41694167,8.46908333 8.467525,6.41666667 11.000275,6.41666667 C13.5311917,6.41666667 15.5836083,8.46908333 15.5836083,11 L15.5836083,11 Z" id="Stroke-6473" sketch:type="MSShapeGroup"></path>
                <path d="M12.375275,1.47299167 C16.5901083,2.07615833 19.924025,5.40915833 20.5271917,9.62490833" id="Stroke-6474" sketch:type="MSShapeGroup"></path>
                <path d="M1.471525,9.625 C2.07469167,5.40925 5.40860833,2.07625 9.625275,1.47308333" id="Stroke-6475" sketch:type="MSShapeGroup"></path>
                <path d="M9.625275,20.5274667 C5.40860833,19.9252167 2.07469167,16.5913 1.471525,12.3746333" id="Stroke-6476" sketch:type="MSShapeGroup"></path>
                <path d="M20.526825,12.375 C19.924575,16.59075 16.5897417,19.9255833 12.3749083,20.5278333" id="Stroke-6477" sketch:type="MSShapeGroup"></path>
            </g>
        </g>
    </g>
</svg>