<?xml version="1.0" encoding="UTF-8" standalone="no"?>
<svg width="53px" height="36px" viewBox="0 0 53 36" version="1.1" xmlns="http://www.w3.org/2000/svg" xmlns:xlink="http://www.w3.org/1999/xlink" xmlns:sketch="http://www.bohemiancoding.com/sketch/ns">
    <!-- Generator: Sketch 3.3.1 (12002) - http://www.bohemiancoding.com/sketch -->
    <title>182 - Advertise (Webby)</title>
    <desc>Created with Sketch.</desc>
    <defs></defs>
    <g id="Advantage-Dashboard" stroke="none" stroke-width="1" fill="none" fill-rule="evenodd" sketch:type="MSPage">
        <g id="Account---Support---Active" sketch:type="MSArtboardGroup" transform="translate(-408.000000, -656.000000)">
            <g id="182---Advertise-(Webby)" sketch:type="MSLayerGroup" transform="translate(409.000000, 657.581573)">
                <path d="M33.4184273,29.0212659 L4.39716149,19.8751699 L4.39716149,13.5432574 L33.4184273,4.39716149 L33.4184273,29.0212659 L33.4184273,29.0212659 Z" id="Fill-68" fill="#FFFFFF" sketch:type="MSShapeGroup"></path>
                <path d="M33.4184273,29.0212659 L4.39716149,19.8751699 L4.39716149,13.5432574 L33.4184273,4.39716149 L33.4184273,29.0212659 L33.4184273,29.0212659 Z" id="Stroke-69" stroke="#F7B900" stroke-width="2" stroke-linecap="round" stroke-linejoin="round" sketch:type="MSShapeGroup"></path>
                <path d="M18.7108016,28.9192517 L8.67120246,25.6662316 C7.5666355,25.3091821 6.95630948,24.1122748 7.313359,23.0085872 C7.67128794,21.9040203 8.86731587,21.2928148 9.97188283,21.6507438 L20.011482,24.9037638 C21.1160489,25.2608133 21.7263749,26.4568413 21.3693254,27.5614082 C21.0113965,28.6659752 19.8144891,29.2771807 18.7108016,28.9192517 L18.7108016,28.9192517 Z" id="Fill-70" fill="#FFFFFF" sketch:type="MSShapeGroup"></path>
                <path d="M18.7108016,28.9192517 L8.67120246,25.6662316 C7.5666355,25.3091821 6.95630948,24.1122748 7.313359,23.0085872 C7.67128794,21.9040203 8.86731587,21.2928148 9.97188283,21.6507438 L20.011482,24.9037638 C21.1160489,25.2608133 21.7263749,26.4568413 21.3693254,27.5614082 C21.0113965,28.6659752 19.8144891,29.2771807 18.7108016,28.9192517 L18.7108016,28.9192517 Z" id="Stroke-71" stroke="#F7B900" stroke-width="2" stroke-linecap="round" stroke-linejoin="round" sketch:type="MSShapeGroup"></path>
                <path d="M2.19858075,22.8652398 L2.19858075,22.8652398 C0.989361336,22.8652398 0,21.8758784 0,20.666659 L0,12.7517683 C0,11.5425489 0.989361336,10.5531876 2.19858075,10.5531876 C3.40780016,10.5531876 4.39716149,11.5425489 4.39716149,12.7517683 L4.39716149,20.666659 C4.39716149,21.8758784 3.40780016,22.8652398 2.19858075,22.8652398 L2.19858075,22.8652398 Z" id="Fill-86" opacity="0.500699627" fill="#F7B900" sketch:type="MSShapeGroup"></path>
                <path d="M2.19858075,22.8652398 L2.19858075,22.8652398 C0.989361336,22.8652398 0,21.8758784 0,20.666659 L0,12.7517683 C0,11.5425489 0.989361336,10.5531876 2.19858075,10.5531876 C3.40780016,10.5531876 4.39716149,11.5425489 4.39716149,12.7517683 L4.39716149,20.666659 C4.39716149,21.8758784 3.40780016,22.8652398 2.19858075,22.8652398 L2.19858075,22.8652398 Z" id="Stroke-87" stroke="#F7B900" stroke-width="2" stroke-linecap="round" stroke-linejoin="round" sketch:type="MSShapeGroup"></path>
                <path d="M36.0567242,33.4184273 L36.0567242,33.4184273 C34.605661,33.4184273 33.4184273,32.2311937 33.4184273,30.7801305 L33.4184273,2.6382969 C33.4184273,1.1872336 34.605661,0 36.0567242,0 C37.5077875,0 38.6950211,1.1872336 38.6950211,2.6382969 L38.6950211,30.7801305 C38.6950211,32.2311937 37.5077875,33.4184273 36.0567242,33.4184273 L36.0567242,33.4184273 Z" id="Fill-88" opacity="0.500699627" fill="#F7B900" sketch:type="MSShapeGroup"></path>
                <path d="M36.0567242,33.4184273 L36.0567242,33.4184273 C34.605661,33.4184273 33.4184273,32.2311937 33.4184273,30.7801305 L33.4184273,2.6382969 C33.4184273,1.1872336 34.605661,0 36.0567242,0 C37.5077875,0 38.6950211,1.1872336 38.6950211,2.6382969 L38.6950211,30.7801305 C38.6950211,32.2311937 37.5077875,33.4184273 36.0567242,33.4184273 L36.0567242,33.4184273 Z" id="Stroke-89" stroke="#F7B900" stroke-width="2" stroke-linecap="round" stroke-linejoin="round" sketch:type="MSShapeGroup"></path>
                <path d="M43.0921826,16.7092137 L51.0070733,16.7092137" id="Path" stroke="#F7B900" stroke-width="2" stroke-linecap="round" stroke-linejoin="round" stroke-dasharray="3" sketch:type="MSShapeGroup"></path>
                <path d="M43.0921826,6.47613945 L48.6888898,0.879432299" id="Path" stroke="#F7B900" stroke-width="2" stroke-linecap="round" stroke-linejoin="round" stroke-dasharray="3" sketch:type="MSShapeGroup"></path>
                <path d="M43.0921826,11.7527332 L51.0070733,9.11443634" id="Path" stroke="#F7B900" stroke-width="2" stroke-linecap="round" stroke-linejoin="round" stroke-dasharray="3" sketch:type="MSShapeGroup"></path>
                <path d="M43.0921826,26.9422879 L48.6888898,32.5389951" id="Path" stroke="#F7B900" stroke-width="2" stroke-linecap="round" stroke-linejoin="round" stroke-dasharray="3" sketch:type="MSShapeGroup"></path>
                <path d="M43.0921826,21.6656941 L51.0070733,24.303991" id="Path" stroke="#F7B900" stroke-width="2" stroke-linecap="round" stroke-linejoin="round" stroke-dasharray="3" sketch:type="MSShapeGroup"></path>
            </g>
        </g>
    </g>
</svg>