<?xml version="1.0" encoding="UTF-8" standalone="no"?>
<svg width="22px" height="23px" viewBox="0 0 22 23" version="1.1" xmlns="http://www.w3.org/2000/svg" xmlns:xlink="http://www.w3.org/1999/xlink" xmlns:sketch="http://www.bohemiancoding.com/sketch/ns">
    <!-- Generator: Sketch 3.3.1 (12002) - http://www.bohemiancoding.com/sketch -->
    <title>95 - Settings (Outline) Copy</title>
    <desc>Created with Sketch.</desc>
    <defs></defs>
    <g id="Advantage-Dashboard" stroke="none" stroke-width="1" fill="none" fill-rule="evenodd" sketch:type="MSPage">
        <g id="Artboard-28" sketch:type="MSArtboardGroup" transform="translate(-227.000000, -265.000000)" stroke="#7F90A6" stroke-width="1.25" stroke-linecap="round" stroke-linejoin="round">
            <g id="95---Settings-(Outline)-Copy" sketch:type="MSLayerGroup" transform="translate(228.000000, 266.406796)">
                <path d="M19.315,8.07692308 L17.3723077,8.07692308 C16.365,8.07692308 15.8603846,6.85884615 16.5726923,6.14653846 L17.9465385,4.77307692 C18.2142308,4.50538462 18.2142308,4.07192308 17.9465385,3.80423077 L16.1953846,2.05346154 C15.9280769,1.78576923 15.4946154,1.78576923 15.2269231,2.05346154 L13.8530769,3.42692308 C13.1407692,4.13923077 11.9230769,3.635 11.9230769,2.62769231 L11.9230769,0.684615385 C11.9230769,0.306538462 11.6165385,0 11.2380769,0 L8.76192308,0 C8.38346154,0 8.07692308,0.306538462 8.07692308,0.684615385 L8.07692308,2.62769231 C8.07692308,3.635 6.85923077,4.13923077 6.14692308,3.42692308 L4.77307692,2.05346154 C4.50538462,1.78576923 4.07192308,1.78576923 3.80461538,2.05346154 L2.05346154,3.80423077 C1.78576923,4.07192308 1.78576923,4.50538462 2.05346154,4.77307692 L3.42730769,6.14653846 C4.13961538,6.85884615 3.635,8.07692308 2.62769231,8.07692308 L0.685,8.07692308 C0.306538462,8.07692308 0,8.38346154 0,8.76153846 L0,11.2380769 C0,11.6165385 0.306538462,11.9230769 0.685,11.9230769 L2.62769231,11.9230769 C3.635,11.9230769 4.13961538,13.1407692 3.42730769,13.8530769 L2.05346154,15.2269231 C1.78576923,15.4942308 1.78576923,15.9280769 2.05346154,16.1953846 L3.80461538,17.9465385 C4.07192308,18.2142308 4.50538462,18.2142308 4.77307692,17.9465385 L6.14692308,16.5726923 C6.85923077,15.8603846 8.07692308,16.365 8.07692308,17.3723077 L8.07692308,19.315 C8.07692308,19.6934615 8.38346154,20 8.76192308,20 L11.2380769,20 C11.6165385,20 11.9230769,19.6934615 11.9230769,19.315 L11.9230769,17.3723077 C11.9230769,16.365 13.1407692,15.8603846 13.8530769,16.5726923 L15.2269231,17.9465385 C15.4946154,18.2142308 15.9280769,18.2142308 16.1953846,17.9465385 L17.9465385,16.1953846 C18.2142308,15.9280769 18.2142308,15.4942308 17.9465385,15.2269231 L16.5726923,13.8530769 C15.8603846,13.1407692 16.365,11.9230769 17.3723077,11.9230769 L19.315,11.9230769 C19.6934615,11.9230769 20,11.6165385 20,11.2380769 L20,8.76153846 C20,8.38346154 19.6934615,8.07692308 19.315,8.07692308 L19.315,8.07692308 Z" id="Path" sketch:type="MSShapeGroup"></path>
                <path d="M13.0769231,10 C13.0769231,11.6992308 11.6992308,13.0769231 10,13.0769231 C8.30076923,13.0769231 6.92307692,11.6992308 6.92307692,10 C6.92307692,8.30076923 8.30076923,6.92307692 10,6.92307692 C11.6992308,6.92307692 13.0769231,8.30076923 13.0769231,10 L13.0769231,10 Z" id="Path" sketch:type="MSShapeGroup"></path>
            </g>
        </g>
    </g>
</svg>