<?xml version="1.0" encoding="UTF-8" standalone="no"?>
<svg width="20px" height="32px" viewBox="0 0 20 32" version="1.1" xmlns="http://www.w3.org/2000/svg" xmlns:xlink="http://www.w3.org/1999/xlink" xmlns:sketch="http://www.bohemiancoding.com/sketch/ns">
    <!-- Generator: Sketch 3.3.1 (12002) - http://www.bohemiancoding.com/sketch -->
    <title>icon-iphone copy 2</title>
    <desc>Created with Sketch.</desc>
    <defs></defs>
    <g id="Advantage-Dashboard" stroke="none" stroke-width="1" fill="none" fill-rule="evenodd" sketch:type="MSPage">
        <g id="Artboard-28" sketch:type="MSArtboardGroup" transform="translate(-232.000000, -122.000000)" stroke-linecap="round" stroke="#F7C200" stroke-width="1.25">
            <g id="icon-iphone-copy-2" sketch:type="MSLayerGroup" transform="translate(233.000000, 123.000000)">
                <path d="M17.5,26.5 C17.5,28.15 16.15,29.5 14.5,29.5 L3.5,29.5 C1.85,29.5 0.5,28.15 0.5,26.5 L0.5,3.5 C0.5,1.85 1.85,0.5 3.5,0.5 L14.5,0.5 C16.15,0.5 17.5,1.85 17.5,3.5 L17.5,26.5 L17.5,26.5 Z" id="Stroke-6138" sketch:type="MSShapeGroup"></path>
                <path d="M0.5,5 L17.5,5" id="Stroke-6139" sketch:type="MSShapeGroup"></path>
                <path d="M0.5,24 L17.5,24" id="Stroke-6140" sketch:type="MSShapeGroup"></path>
                <path d="M5.5,3 L12.5,3" id="Stroke-6141" sketch:type="MSShapeGroup"></path>
                <path d="M10,27 C10,27.552 9.553,28 9,28 C8.447,28 8,27.552 8,27 C8,26.448 8.447,26 9,26 C9.553,26 10,26.448 10,27 L10,27 Z" id="Stroke-6142" sketch:type="MSShapeGroup"></path>
            </g>
        </g>
    </g>
</svg>