<?xml version="1.0" encoding="UTF-8" standalone="no"?>
<svg width="55px" height="54px" viewBox="0 0 55 54" version="1.1" xmlns="http://www.w3.org/2000/svg" xmlns:xlink="http://www.w3.org/1999/xlink" xmlns:sketch="http://www.bohemiancoding.com/sketch/ns">
    <!-- Generator: Sketch 3.3.1 (12002) - http://www.bohemiancoding.com/sketch -->
    <title>7 - Ordered List (Webby)</title>
    <desc>Created with Sketch.</desc>
    <defs></defs>
    <g id="Advantage-Dashboard" stroke="none" stroke-width="1" fill="none" fill-rule="evenodd" sketch:type="MSPage">
        <g id="Account---Support---Active" sketch:type="MSArtboardGroup" transform="translate(-408.000000, -201.000000)">
            <g id="7---Ordered-List-(Webby)" sketch:type="MSLayerGroup" transform="translate(409.000000, 202.000000)">
                <path d="M0,52 L53,52 L53,0 L0,0 L0,52 Z" id="Fill-428" fill="#FFFFFF" sketch:type="MSShapeGroup"></path>
                <path d="M0,52 L53,52 L53,0 L0,0 L0,52 Z" id="Stroke-429" stroke="#F7B900" stroke-width="2" stroke-linecap="round" opacity="0.504022854" sketch:type="MSShapeGroup"></path>
                <path d="M22.8448276,10.9473684 L42.9482759,10.9473684" id="Path" stroke="#F7B900" stroke-width="2" stroke-linecap="round" sketch:type="MSShapeGroup"></path>
                <path d="M22.8448276,25.5438596 L42.9482759,25.5438596" id="Path" stroke="#F7B900" stroke-width="2" stroke-linecap="round" sketch:type="MSShapeGroup"></path>
                <path d="M22.8448276,40.1403509 L42.9482759,40.1403509" id="Path" stroke="#F7B900" stroke-width="2" stroke-linecap="round" sketch:type="MSShapeGroup"></path>
                <path d="M13.7068966,10.9473684 L13.7068966,6.38596491" id="Path" stroke="#F7B900" stroke-width="2" stroke-linecap="round" sketch:type="MSShapeGroup"></path>
                <path d="M13.7068966,15.5087719 L13.7068966,10.9473684" id="Path" stroke="#F7B900" stroke-width="2" stroke-linecap="round" sketch:type="MSShapeGroup"></path>
                <path d="M13.7068966,6.38596491 L10.0517241,10.0350877" id="Path" stroke="#F7B900" stroke-width="2" stroke-linecap="round" sketch:type="MSShapeGroup"></path>
                <path d="M10.5086207,23.7192982 C10.5086207,22.2067368 11.734931,20.9824561 13.25,20.9824561 L13.2956897,20.9824561 C15.2667414,21.014386 16.2362759,23.4337544 14.9533103,24.9280702 L10.8019483,29.7640702 C10.6868103,29.8981754 10.7818448,30.1052632 10.9591207,30.1052632 L15.5344828,30.1052632" id="Path" stroke="#F7B900" stroke-width="2" stroke-linecap="round" sketch:type="MSShapeGroup"></path>
                <path d="M10.9655172,40.1403509 L12.7931034,40.1403509" id="Path" stroke="#F7B900" stroke-width="2" stroke-linecap="round" sketch:type="MSShapeGroup"></path>
                <path d="M10.9655172,44.7017544 L12.7931034,44.7017544 C14.0550517,44.7017544 15.0775862,43.6809123 15.0775862,42.4210526 C15.0775862,41.161193 14.0550517,40.1403509 12.7931034,40.1403509 C14.0550517,40.1403509 15.0775862,39.1195088 15.0775862,37.8596491 C15.0775862,36.5997895 14.0550517,35.5789474 12.7931034,35.5789474 L10.9655172,35.5789474" id="Path" stroke="#F7B900" stroke-width="2" stroke-linecap="round" sketch:type="MSShapeGroup"></path>
            </g>
        </g>
    </g>
</svg>