<?xml version="1.0" encoding="UTF-8" standalone="no"?>
<svg width="15px" height="24px" viewBox="0 0 15 24" version="1.1" xmlns="http://www.w3.org/2000/svg" xmlns:xlink="http://www.w3.org/1999/xlink" xmlns:sketch="http://www.bohemiancoding.com/sketch/ns">
    <!-- Generator: Sketch 3.3.1 (12002) - http://www.bohemiancoding.com/sketch -->
    <title>icon-balloon copy</title>
    <desc>Created with Sketch.</desc>
    <defs></defs>
    <g id="Advantage-Dashboard" stroke="none" stroke-width="1" fill="none" fill-rule="evenodd" sketch:type="MSPage">
        <g id="Artboard-28" sketch:type="MSArtboardGroup" transform="translate(-138.000000, -154.000000)" stroke="#F7B900" stroke-width="1.5" stroke-linecap="round" stroke-linejoin="round">
            <g id="icon-balloon-copy" sketch:type="MSLayerGroup" transform="translate(138.500000, 154.406796)">
                <path d="M13.53352,7.46666667 C13.53352,3.26666667 10.73352,0.466666667 7.00018667,0.466666667 C3.26685333,0.466666667 0.466853333,3.26666667 0.466853333,7.46666667 C0.466853333,11.2065333 5.39765333,14.2389333 6.53352,14.9333333 L5.13352,17.2666667 L8.86685333,17.2666667 L7.46685333,14.9333333 C8.60272,14.2389333 13.53352,11.2065333 13.53352,7.46666667 L13.53352,7.46666667 Z" id="Stroke-7546" sketch:type="MSShapeGroup"></path>
                <path d="M7.00018667,17.2666667 L7.00018667,20.0666667 C7.00018667,20.5828 7.41738667,21 7.93352,21 C8.44872,21 8.86685333,20.5828 8.86685333,20.0666667 C8.86685333,19.5514667 9.28405333,19.1333333 9.80018667,19.1333333 C10.3153867,19.1333333 10.73352,19.5514667 10.73352,20.0666667 L10.73352,21 L10.73352,21.9333333" id="Stroke-7547" sketch:type="MSShapeGroup"></path>
                <path d="M2.33352,7 C2.33352,4.42213333 4.42232,2.33333333 7.00018667,2.33333333" id="Stroke-7548" sketch:type="MSShapeGroup"></path>
            </g>
        </g>
    </g>
</svg>