<?xml version="1.0" encoding="UTF-8" standalone="no"?>
<svg width="42px" height="76px" viewBox="0 0 42 76" version="1.1" xmlns="http://www.w3.org/2000/svg" xmlns:xlink="http://www.w3.org/1999/xlink" xmlns:sketch="http://www.bohemiancoding.com/sketch/ns">
    <!-- Generator: Sketch 3.3.1 (12002) - http://www.bohemiancoding.com/sketch -->
    <title>70 - Iphone 6 (Webby)</title>
    <desc>Created with Sketch.</desc>
    <defs></defs>
    <g id="Advantage---Online-sign-up" stroke="none" stroke-width="1" fill="none" fill-rule="evenodd" sketch:type="MSPage">
        <g id="Account---Advantage-Plans---modal-add-device" sketch:type="MSArtboardGroup" transform="translate(-695.000000, -202.000000)">
            <g id="70---Iphone-6-(Webby)" sketch:type="MSLayerGroup" transform="translate(696.250000, 203.000000)">
                <path d="M35.8612751,73.9569378 L3.8277201,73.9569378 C1.81794498,73.9569378 0.188995215,72.2661292 0.188995215,70.1800335 L0.188995215,3.77690431 C0.188995215,1.69080861 1.81794498,0 3.8277201,0 L35.8612751,0 C37.8710502,0 39.5,1.69080861 39.5,3.77690431 L39.5,70.1800335 C39.5,72.2661292 37.8710502,73.9569378 35.8612751,73.9569378 L35.8612751,73.9569378 Z" id="Fill-22" fill="#FDEEBD" sketch:type="MSShapeGroup"></path>
                <path d="M35.8612751,73.9569378 L3.8277201,73.9569378 C1.81794498,73.9569378 0.188995215,72.2661292 0.188995215,70.1800335 L0.188995215,3.77690431 C0.188995215,1.69080861 1.81794498,0 3.8277201,0 L35.8612751,0 C37.8710502,0 39.5,1.69080861 39.5,3.77690431 L39.5,70.1800335 C39.5,72.2661292 37.8710502,73.9569378 35.8612751,73.9569378 L35.8612751,73.9569378 Z" id="Stroke-23" stroke="#F7B900" stroke-width="2" stroke-linecap="round" sketch:type="MSShapeGroup"></path>
                <path d="M0.188995215,7.6507177 L39.5,7.6507177 L39.5,63.7559809 L0.188995215,63.7559809 L0.188995215,7.6507177 Z" id="Fill-1562" fill="#FFFFFF" sketch:type="MSShapeGroup"></path>
                <path d="M0.188995215,7.6507177 L39.5,7.6507177 L39.5,63.7559809 L0.188995215,63.7559809 L0.188995215,7.6507177 Z" id="Stroke-1563" stroke="#F7B900" stroke-width="2" stroke-linecap="round" sketch:type="MSShapeGroup"></path>
                <g id="Group" transform="translate(6.236842, 23.736842)" sketch:type="MSShapeGroup">
                    <path d="M4.28988883,6.92634085 L1.12241655,6.92634085 C0.537652436,6.92634085 0.0632317415,6.54749236 0.0632317415,6.0805808 L0.0632317415,6.04925636 C0.0632317415,5.58175377 0.537652436,5.20349631 1.12241655,5.20349631 L4.28988883,5.20349631 C4.87465295,5.20349631 5.34907364,5.58175377 5.34907364,6.04925636 L5.34907364,6.0805808 C5.34907364,6.54749236 4.87465295,6.92634085 4.28988883,6.92634085" id="Fill-87-Copy" fill="#FDEEBD"></path>
                    <path d="M24.6342019,6.92634085 L21.4667296,6.92634085 C20.8819655,6.92634085 20.4075448,6.54749236 20.4075448,6.0805808 L20.4075448,6.04925636 C20.4075448,5.58175377 20.8819655,5.20349631 21.4667296,5.20349631 L24.6342019,5.20349631 C25.218966,5.20349631 25.6933867,5.58175377 25.6933867,6.04925636 L25.6933867,6.0805808 C25.6933867,6.54749236 25.218966,6.92634085 24.6342019,6.92634085" id="Fill-83-Copy" fill="#FDEEBD"></path>
                    <path d="M13.2070984,12.1556022 C11.1240162,12.1556022 9.32155367,10.7406829 8.72166634,8.63603474 C8.66285386,8.42976621 8.69926159,8.21167715 8.82192762,8.03673307 C8.94627402,7.86060694 9.14399598,7.75599511 9.35123997,7.75599511 C10.6294313,7.81982605 11.9154642,7.85233255 13.2070984,7.85233255 C14.4981724,7.85233255 15.7842053,7.81982605 17.0299097,7.75658613 L17.0327103,7.75658613 C17.2718811,7.75658613 17.4679227,7.86119796 17.591709,8.03673307 C17.714375,8.21108612 17.7513429,8.42917519 17.6925304,8.63603474 C17.0920829,10.7406829 15.2896204,12.1556022 13.2070984,12.1556022" id="Fill-84-Copy" fill="#FFCE00"></path>
                    <path d="M1.6214172,2.34262932 C1.71607729,2.10621841 1.85330642,1.89226653 2.02358256,1.71318526 C2.1938587,1.53351296 2.39606162,1.38812025 2.62066929,1.28823664 C2.84471684,1.18835303 3.09004891,1.13279646 3.3505042,1.13279646 C3.61095948,1.13279646 3.85685167,1.18835303 4.08145934,1.28823664 C4.30494677,1.38812025 4.50770981,1.53351296 4.67798595,1.71318526 C4.84770197,1.89226653 4.98549122,2.10621841 5.08015131,2.34262932 C5.18545366,2.60563647 5.47335476,2.72857014 5.72260767,2.61745701 C5.97186057,2.50634388 6.0883653,2.20255585 5.98306295,1.93954871 C5.83799216,1.57843104 5.62906781,1.25395706 5.37085301,0.981493476 C5.1126382,0.709029896 4.80513294,0.488576717 4.4629003,0.335500649 C4.12066766,0.183015609 3.74370765,0.0984987063 3.3505042,0.0984987063 C2.95786086,0.0984987063 2.58034073,0.183015609 2.23866821,0.335500649 C1.89643557,0.488576717 1.58893031,0.709029896 1.3307155,0.981493476 C1.0725007,1.25395706 0.863016235,1.57843104 0.718505563,1.93954871 C0.613203213,2.20255585 0.72970794,2.50634388 0.978960843,2.61745701 C1.22821375,2.72857014 1.51555473,2.60563647 1.6214172,2.34262932" id="Fill-85-Copy" fill="#FFCE00"></path>
                    <path d="M21.3492359,2.34262932 C21.443896,2.10621841 21.5816853,1.89226653 21.7514013,1.71318526 C21.9216774,1.53351296 22.1238804,1.38812025 22.348488,1.28823664 C22.5725356,1.18835303 22.8178677,1.13279646 23.0788831,1.13279646 C23.3393383,1.13279646 23.5846704,1.18835303 23.8092781,1.28823664 C24.0327655,1.38812025 24.2355286,1.53351296 24.4058047,1.71318526 C24.5755207,1.89226653 24.71331,2.10621841 24.8079701,2.34262932 C24.9132724,2.60563647 25.2011735,2.72857014 25.4504264,2.61745701 C25.6996793,2.50634388 25.816184,2.20255585 25.7108817,1.93954871 C25.5658109,1.57843104 25.3568866,1.25395706 25.0986718,0.981493476 C24.8404569,0.709029896 24.5329517,0.488576717 24.190719,0.335500649 C23.8484864,0.183015609 23.4715264,0.0984987063 23.0788831,0.0984987063 C22.6856796,0.0984987063 22.3087196,0.183015609 21.966487,0.335500649 C21.6242543,0.488576717 21.3167491,0.709029896 21.0585342,0.981493476 C20.8003194,1.25395706 20.590835,1.57843104 20.4463243,1.93954871 C20.341022,2.20255585 20.4575267,2.50634388 20.7067796,2.61745701 C20.9560325,2.72857014 21.2433735,2.60563647 21.3492359,2.34262932" id="Fill-86-Copy" fill="#FFCE00"></path>
                </g>
                <path d="M18.6160287,3.82535885 L24.7583732,3.82535885 M13.7021531,3.82535885 L14.930622,3.82535885" id="Stroke-1564" stroke="#F7B900" stroke-width="2" stroke-linecap="round" sketch:type="MSShapeGroup"></path>
                <path d="M23.5299043,68.8564593 C23.5299043,70.9693325 21.8800706,72.6818182 19.8444976,72.6818182 C17.8089246,72.6818182 16.1590909,70.9693325 16.1590909,68.8564593 C16.1590909,66.7435861 17.8089246,65.0311005 19.8444976,65.0311005 C21.8800706,65.0311005 23.5299043,66.7435861 23.5299043,68.8564593 L23.5299043,68.8564593 Z" id="Fill-1565" fill="#FFFFFF" sketch:type="MSShapeGroup"></path>
                <path d="M23.5299043,68.8564593 C23.5299043,70.9693325 21.8800706,72.6818182 19.8444976,72.6818182 C17.8089246,72.6818182 16.1590909,70.9693325 16.1590909,68.8564593 C16.1590909,66.7435861 17.8089246,65.0311005 19.8444976,65.0311005 C21.8800706,65.0311005 23.5299043,66.7435861 23.5299043,68.8564593 L23.5299043,68.8564593 Z" id="Stroke-1566" stroke="#F7B900" stroke-width="2" stroke-linecap="round" sketch:type="MSShapeGroup"></path>
            </g>
        </g>
    </g>
</svg>