<?xml version="1.0" encoding="UTF-8" standalone="no"?>
<svg width="23px" height="23px" viewBox="0 0 23 23" version="1.1" xmlns="http://www.w3.org/2000/svg" xmlns:xlink="http://www.w3.org/1999/xlink" xmlns:sketch="http://www.bohemiancoding.com/sketch/ns">
    <!-- Generator: Sketch 3.3.1 (12002) - http://www.bohemiancoding.com/sketch -->
    <title>icon-trade-in copy</title>
    <desc>Created with Sketch.</desc>
    <defs></defs>
    <g id="Advantage-Dashboard" stroke="none" stroke-width="1" fill="none" fill-rule="evenodd" sketch:type="MSPage">
        <g id="Artboard-28" sketch:type="MSArtboardGroup" transform="translate(-134.000000, -300.000000)" stroke-linecap="round" stroke="#F7B900" stroke-linejoin="round">
            <g id="icon-trade-in-copy" sketch:type="MSLayerGroup" transform="translate(134.500000, 300.406796)">
                <path d="M21.5419417,7.33333333 C21.5419417,11.1301667 18.4646917,14.2083333 14.6669417,14.2083333 C10.8701083,14.2083333 7.79194167,11.1301667 7.79194167,7.33333333 C7.79194167,3.5365 10.8701083,0.458333333 14.6669417,0.458333333 C18.4646917,0.458333333 21.5419417,3.5365 21.5419417,7.33333333 L21.5419417,7.33333333 Z" id="Stroke-5521" stroke-width="1.5" sketch:type="MSShapeGroup"></path>
                <path d="M14.6666667,10.0833333 L14.6666667,11" id="Stroke-5522" sketch:type="MSShapeGroup"></path>
                <path d="M14.6666667,3.66666667 L14.6666667,4.58333333" id="Stroke-5523" sketch:type="MSShapeGroup"></path>
                <path d="M13.2919417,8.70833333 C13.2919417,9.46733333 13.9079417,10.0833333 14.6669417,10.0833333 C15.4259417,10.0833333 16.0419417,9.46733333 16.0419417,8.70833333 C16.0419417,7.94841667 15.4259417,7.33333333 14.6669417,7.33333333 C13.9079417,7.33333333 13.2919417,6.71733333 13.2919417,5.95833333 C13.2919417,5.19841667 13.9079417,4.58333333 14.6669417,4.58333333 C15.4259417,4.58333333 16.0419417,5.19841667 16.0419417,5.95833333" id="Stroke-5524" sketch:type="MSShapeGroup"></path>
                <path d="M7.33333333,17.4166667 L7.33333333,18.3333333" id="Stroke-5525" sketch:type="MSShapeGroup"></path>
                <path d="M7.33333333,11 L7.33333333,11.9166667" id="Stroke-5526" sketch:type="MSShapeGroup"></path>
                <path d="M5.95860833,16.0416667 C5.95860833,16.8006667 6.57460833,17.4166667 7.33360833,17.4166667 C8.09260833,17.4166667 8.70860833,16.8006667 8.70860833,16.0416667 C8.70860833,15.28175 8.09260833,14.6666667 7.33360833,14.6666667 C6.57460833,14.6666667 5.95860833,14.0506667 5.95860833,13.2916667 C5.95860833,12.53175 6.57460833,11.9166667 7.33360833,11.9166667 C8.09260833,11.9166667 8.70860833,12.53175 8.70860833,13.2916667" id="Stroke-5527" sketch:type="MSShapeGroup"></path>
                <path d="M7.81614167,7.81586667 C7.65664167,7.80486667 7.496225,7.79203333 7.333975,7.79203333 C3.53714167,7.79203333 0.458975,10.8702 0.458975,14.6670333 C0.458975,18.4638667 3.53714167,21.5420333 7.333975,21.5420333 C11.1308083,21.5420333 14.208975,18.4638667 14.208975,14.6670333 C14.208975,14.5038667 14.195225,14.3443667 14.184225,14.18395" id="Stroke-5528" stroke-width="1.5" sketch:type="MSShapeGroup"></path>
            </g>
        </g>
    </g>
</svg>